<?xml version="1.0" encoding="UTF-8"?><svg id="Layer_1" xmlns="http://www.w3.org/2000/svg" viewBox="0 0 524.7 228.38"><defs><style>.cls-1{letter-spacing:-.01em;}.cls-2{letter-spacing:0em;}.cls-3{letter-spacing:0em;}.cls-4{letter-spacing:0em;}.cls-5{letter-spacing:0em;}.cls-6{letter-spacing:0em;}.cls-7{letter-spacing:.04em;}.cls-8{letter-spacing:0em;}.cls-9{letter-spacing:0em;}.cls-10{letter-spacing:.04em;}.cls-11{letter-spacing:0em;}.cls-12{letter-spacing:.02em;}.cls-13{letter-spacing:.01em;}.cls-14{letter-spacing:0em;}.cls-15{letter-spacing:.01em;}.cls-16{letter-spacing:0em;}.cls-17{letter-spacing:.05em;}.cls-18,.cls-19,.cls-20,.cls-21{fill:#1d1d1b;}.cls-18,.cls-20{font-family:ProbaPro-SemiBold, 'Proba Pro';}.cls-18,.cls-21{font-size:12px;}.cls-22{letter-spacing:0em;}.cls-23{letter-spacing:.05em;}.cls-24{letter-spacing:0em;}.cls-25{letter-spacing:0em;}.cls-26{letter-spacing:.04em;}.cls-27{letter-spacing:0em;}.cls-28{letter-spacing:.04em;}.cls-29{letter-spacing:.02em;}.cls-30{letter-spacing:.01em;}.cls-31{letter-spacing:.07em;}.cls-32{letter-spacing:.04em;}.cls-33{letter-spacing:0em;}.cls-34{letter-spacing:0em;}.cls-35{letter-spacing:.02em;}.cls-36{letter-spacing:-.07em;}.cls-37{letter-spacing:0em;}.cls-38{letter-spacing:.05em;}.cls-39{letter-spacing:0em;}.cls-40{letter-spacing:.02em;}.cls-41{letter-spacing:.01em;}.cls-42{letter-spacing:.06em;}.cls-43{letter-spacing:0em;}.cls-44{letter-spacing:.02em;}.cls-45{letter-spacing:.01em;}.cls-46{letter-spacing:.05em;}.cls-47{letter-spacing:0em;}.cls-48{fill:none;stroke:#1d1d1b;stroke-miterlimit:10;}.cls-49{letter-spacing:-.04em;}.cls-50{letter-spacing:.06em;}.cls-19{font-family:ProbaPro-Regular, 'Proba Pro';}.cls-19,.cls-20{font-size:10px;}.cls-51{letter-spacing:-.06em;}.cls-52{letter-spacing:0em;}.cls-53{letter-spacing:.01em;}.cls-54{letter-spacing:0em;}.cls-55{letter-spacing:.05em;}.cls-56{letter-spacing:.04em;}.cls-57{letter-spacing:-.05em;}.cls-58{letter-spacing:0em;}.cls-59{letter-spacing:0em;}.cls-60{letter-spacing:0em;}.cls-61{letter-spacing:0em;}.cls-62{letter-spacing:0em;}.cls-63{letter-spacing:0em;}.cls-64{letter-spacing:.02em;}.cls-65{letter-spacing:-.03em;}.cls-66{letter-spacing:0em;}.cls-67{letter-spacing:0em;}.cls-68{letter-spacing:0em;}.cls-69{letter-spacing:-.04em;}.cls-70{letter-spacing:0em;}.cls-71{letter-spacing:-.01em;}.cls-72{letter-spacing:.03em;}.cls-73{letter-spacing:0em;}.cls-74{letter-spacing:.06em;}.cls-75{letter-spacing:0em;}.cls-76{letter-spacing:-.03em;}.cls-77{letter-spacing:0em;}.cls-78{letter-spacing:.02em;}.cls-79{letter-spacing:0em;}.cls-80{letter-spacing:-.01em;}.cls-81{letter-spacing:0em;}.cls-82{letter-spacing:.06em;}.cls-83{letter-spacing:0em;}.cls-21{font-family:ProbaPro-Italic, 'Proba Pro';}.cls-84{letter-spacing:-.03em;}.cls-85{letter-spacing:0em;}.cls-86{letter-spacing:-.02em;}.cls-87{letter-spacing:0em;}.cls-88{letter-spacing:0em;}.cls-89{letter-spacing:-.01em;}.cls-90{letter-spacing:0em;}.cls-91{letter-spacing:0em;}.cls-92{letter-spacing:.01em;}.cls-93{letter-spacing:.01em;}.cls-94{letter-spacing:.01em;}.cls-95{letter-spacing:0em;}.cls-96{letter-spacing:.01em;}.cls-97{letter-spacing:0em;}.cls-98{letter-spacing:0em;}.cls-99{letter-spacing:0em;}.cls-100{letter-spacing:0em;}.cls-101{letter-spacing:0em;}.cls-102{letter-spacing:0em;}.cls-103{letter-spacing:0em;}.cls-104{letter-spacing:.02em;}.cls-105{letter-spacing:.05em;}.cls-106{letter-spacing:0em;}.cls-107{letter-spacing:.01em;}.cls-108{letter-spacing:.02em;}.cls-109{letter-spacing:.05em;}.cls-110{letter-spacing:0em;}.cls-111{letter-spacing:.01em;}.cls-112{letter-spacing:0em;}.cls-113{letter-spacing:0em;}.cls-114{letter-spacing:-.03em;}.cls-115{letter-spacing:-.01em;}.cls-116{letter-spacing:0em;}.cls-117{letter-spacing:-.02em;}.cls-118{letter-spacing:-.01em;}.cls-119{letter-spacing:.01em;}.cls-120{letter-spacing:0em;}.cls-121{letter-spacing:0em;}.cls-122{letter-spacing:.01em;}.cls-123{letter-spacing:.01em;}.cls-124{letter-spacing:.01em;}.cls-125{letter-spacing:0em;}</style></defs><line class="cls-48" y1=".5" x2="155.81" y2=".5"/><line class="cls-48" x1=".5" y1="31.4" x2=".5" y2="1"/><line class="cls-48" x1="155.81" y1=".5" x2="293.76" y2=".5"/><line class="cls-48" x1="155.81" y1="31.4" x2="155.81" y2="1"/><line class="cls-48" x1="293.76" y1=".5" x2="394.87" y2=".5"/><line class="cls-48" x1="293.76" y1="31.4" x2="293.76" y2="1"/><line class="cls-48" x1="394.87" y1=".5" x2="524.7" y2=".5"/><line class="cls-48" x1="394.87" y1="31.4" x2="394.87" y2="1"/><line class="cls-48" x1="524.2" y1="31.4" x2="524.2" y2="1"/><line class="cls-48" y1="31.9" x2="155.81" y2="31.9"/><line class="cls-48" x1=".5" y1="62.58" x2=".5" y2="32.4"/><line class="cls-48" x1="155.81" y1="31.9" x2="293.76" y2="31.9"/><line class="cls-48" x1="155.81" y1="62.58" x2="155.81" y2="32.4"/><line class="cls-48" x1="293.76" y1="31.9" x2="394.87" y2="31.9"/><line class="cls-48" x1="293.76" y1="62.58" x2="293.76" y2="32.4"/><line class="cls-48" x1="394.87" y1="31.9" x2="524.7" y2="31.9"/><line class="cls-48" x1="394.87" y1="62.58" x2="394.87" y2="32.4"/><line class="cls-48" x1="524.2" y1="62.58" x2="524.2" y2="32.4"/><line class="cls-48" y1="63.08" x2="155.81" y2="63.08"/><line class="cls-48" x1=".5" y1="104.16" x2=".5" y2="63.58"/><line class="cls-48" x1="155.81" y1="63.08" x2="293.76" y2="63.08"/><line class="cls-48" x1="155.81" y1="104.16" x2="155.81" y2="63.58"/><line class="cls-48" x1="293.76" y1="63.08" x2="394.87" y2="63.08"/><line class="cls-48" x1="293.76" y1="104.16" x2="293.76" y2="63.58"/><line class="cls-48" x1="394.87" y1="63.08" x2="524.7" y2="63.08"/><line class="cls-48" x1="394.87" y1="104.16" x2="394.87" y2="63.58"/><line class="cls-48" x1="524.2" y1="104.16" x2="524.2" y2="63.58"/><line class="cls-48" y1="104.66" x2="155.81" y2="104.66"/><line class="cls-48" x1=".5" y1="145.23" x2=".5" y2="105.16"/><line class="cls-48" x1="155.81" y1="104.66" x2="293.76" y2="104.66"/><line class="cls-48" x1="155.81" y1="145.23" x2="155.81" y2="105.16"/><line class="cls-48" x1="293.76" y1="104.66" x2="394.87" y2="104.66"/><line class="cls-48" x1="293.76" y1="145.23" x2="293.76" y2="105.16"/><line class="cls-48" x1="394.87" y1="104.66" x2="524.7" y2="104.66"/><line class="cls-48" x1="394.87" y1="145.23" x2="394.87" y2="105.16"/><line class="cls-48" x1="524.2" y1="145.23" x2="524.2" y2="105.16"/><line class="cls-48" y1="145.73" x2="155.81" y2="145.73"/><line class="cls-48" x1=".5" y1="186.31" x2=".5" y2="146.23"/><line class="cls-48" x1="155.81" y1="145.73" x2="293.76" y2="145.73"/><line class="cls-48" x1="155.81" y1="186.31" x2="155.81" y2="146.23"/><line class="cls-48" x1="293.76" y1="145.73" x2="394.87" y2="145.73"/><line class="cls-48" x1="293.76" y1="186.31" x2="293.76" y2="146.23"/><line class="cls-48" x1="394.87" y1="145.73" x2="524.7" y2="145.73"/><line class="cls-48" x1="394.87" y1="186.31" x2="394.87" y2="146.23"/><line class="cls-48" x1="524.2" y1="186.31" x2="524.2" y2="146.23"/><line class="cls-48" y1="186.81" x2="155.81" y2="186.81"/><line class="cls-48" x1=".5" y1="227.38" x2=".5" y2="187.31"/><line class="cls-48" x1="155.81" y1="186.81" x2="293.76" y2="186.81"/><line class="cls-48" x1="155.81" y1="227.38" x2="155.81" y2="187.31"/><line class="cls-48" x1="293.76" y1="186.81" x2="394.87" y2="186.81"/><line class="cls-48" x1="293.76" y1="227.38" x2="293.76" y2="187.31"/><line class="cls-48" x1="394.87" y1="186.81" x2="524.7" y2="186.81"/><line class="cls-48" x1="394.87" y1="227.38" x2="394.87" y2="187.31"/><line class="cls-48" x1="524.2" y1="227.38" x2="524.2" y2="187.31"/><line class="cls-48" y1="227.88" x2="155.81" y2="227.88"/><line class="cls-48" x1="155.81" y1="227.88" x2="293.76" y2="227.88"/><line class="cls-48" x1="293.76" y1="227.88" x2="394.87" y2="227.88"/><line class="cls-48" x1="394.87" y1="227.88" x2="524.7" y2="227.88"/><text class="cls-21" transform="translate(20.57 13.5)"><tspan class="cls-46" x="0" y="0">D</tspan><tspan class="cls-40" x="9.02" y="0">E</tspan><tspan class="cls-10" x="15.31" y="0">S</tspan><tspan class="cls-109" x="22.32" y="0">I</tspan><tspan class="cls-38" x="25.7" y="0">G</tspan><tspan class="cls-26" x="35.21" y="0">N </tspan><tspan class="cls-86" x="47.59" y="0">P</tspan><tspan class="cls-104" x="53.75" y="0">ARA</tspan><tspan class="cls-50" x="78.65" y="0">M</tspan><tspan class="cls-58" x="89.23" y="0">E</tspan><tspan class="cls-39" x="95.39" y="0">T</tspan><tspan class="cls-72" x="102.14" y="0">E</tspan><tspan x="108.6" y="0">R</tspan></text><text class="cls-21" transform="translate(177.64 13.5)"><tspan class="cls-35" x="0" y="0">F</tspan><tspan class="cls-72" x="6.04" y="0">EE</tspan><tspan class="cls-17" x="18.95" y="0">D</tspan><tspan class="cls-94" x="27.96" y="0">B</tspan><tspan class="cls-37" x="34.76" y="0">A</tspan><tspan class="cls-56" x="43.6" y="0">C</tspan><tspan class="cls-102" x="52.63" y="0">K</tspan><tspan class="cls-32" x="59.93" y="0">S </tspan><tspan class="cls-107" x="70.14" y="0">A</tspan><tspan class="cls-28" x="79.04" y="0">U</tspan><tspan x="87.73" y="0">S </tspan></text><text class="cls-21" transform="translate(188.85 27.9)"><tspan class="cls-103" x="0" y="0">D</tspan><tspan class="cls-57" x="8.5" y="0">A</tspan><tspan class="cls-39" x="16.62" y="0">T</tspan><tspan class="cls-72" x="23.38" y="0">E</tspan><tspan class="cls-50" x="29.83" y="0">N</tspan><tspan class="cls-41" x="39.26" y="0">B</tspan><tspan class="cls-104" x="46.07" y="0">A</tspan><tspan class="cls-31" x="55.12" y="0">N</tspan><tspan class="cls-112" x="64.56" y="0">K</tspan></text><text class="cls-21" transform="translate(305.7 13.5)"><tspan class="cls-29" x="0" y="0">A</tspan><tspan class="cls-82" x="9.05" y="0">NM</tspan><tspan class="cls-72" x="29.06" y="0">E</tspan><tspan class="cls-42" x="35.52" y="0">R</tspan><tspan class="cls-5" x="42.72" y="0">K</tspan><tspan class="cls-42" x="50.1" y="0">U</tspan><tspan class="cls-55" x="58.96" y="0">N</tspan><tspan x="68.23" y="0">G</tspan></text><text class="cls-18" transform="translate(431.61 13.45)"><tspan class="cls-23" x="0" y="0">R</tspan><tspan class="cls-105" x="7.18" y="0">E</tspan><tspan class="cls-7" x="13.51" y="0">S</tspan><tspan class="cls-74" x="20.54" y="0">U</tspan><tspan class="cls-69" x="29.16" y="0">L</tspan><tspan class="cls-49" x="34.18" y="0">T</tspan><tspan class="cls-76" x="40.42" y="0">A</tspan><tspan x="49.14" y="0">T</tspan></text><text class="cls-19" transform="translate(4.5 43.37)"><tspan class="cls-15" x="0" y="0">G</tspan><tspan class="cls-6" x="7.45" y="0">r</tspan><tspan class="cls-16" x="10.84" y="0">un</tspan><tspan class="cls-95" x="21.42" y="0">d</tspan><tspan class="cls-34" x="26.85" y="0">f</tspan><tspan class="cls-25" x="30.03" y="0">o</tspan><tspan class="cls-34" x="35.65" y="0">r</tspan><tspan x="39.04" y="0">m</tspan></text><text class="cls-19" transform="translate(159.81 43.37)"><tspan class="cls-89" x="0" y="0">E</tspan><tspan x="4.86" y="0">c</tspan><tspan class="cls-125" x="9.64" y="0">k</tspan><tspan class="cls-59" x="14.31" y="0">i</tspan><tspan x="16.54" y="0">g = </tspan><tspan class="cls-4" x="30.97" y="0">1</tspan><tspan class="cls-115" x="34.04" y="0">1</tspan><tspan x="37.1" y="0">x</tspan></text><text class="cls-19" transform="translate(159.81 58.2)"><tspan class="cls-13" x="0" y="0">O</tspan><tspan x="8.19" y="0">val = </tspan><tspan class="cls-62" x="29.84" y="0">1</tspan><tspan class="cls-118" x="32.98" y="0">6</tspan><tspan x="38.17" y="0">x</tspan></text><text class="cls-20" transform="translate(398.87 43.36)"><tspan class="cls-44" x="0" y="0">O</tspan><tspan class="cls-77" x="8.2" y="0">v</tspan><tspan class="cls-100" x="13.51" y="0">a</tspan><tspan x="18.17" y="0">le </tspan><tspan class="cls-78" x="28.06" y="0">G</tspan><tspan class="cls-85" x="35.45" y="0">r</tspan><tspan class="cls-123" x="38.91" y="0">u</tspan><tspan class="cls-96" x="44.25" y="0">n</tspan><tspan class="cls-90" x="49.51" y="0">d</tspan><tspan x="54.99" y="0">f</tspan><tspan class="cls-123" x="58.37" y="0">o</tspan><tspan class="cls-85" x="64" y="0">r</tspan><tspan x="67.46" y="0">m</tspan></text><text class="cls-19" transform="translate(4.5 74.55)"><tspan class="cls-65" x="0" y="0">K</tspan><tspan class="cls-25" x="5.67" y="0">o</tspan><tspan class="cls-113" x="11.29" y="0">m</tspan><tspan class="cls-6" x="18.87" y="0">f</tspan><tspan class="cls-27" x="22.05" y="0">o</tspan><tspan class="cls-45" x="27.67" y="0">r</tspan><tspan x="31.25" y="0">t</tspan></text><text class="cls-19" transform="translate(159.81 74.55)"><tspan class="cls-122" x="0" y="0">0</tspan><tspan class="cls-2" x="5.77" y="0">-</tspan><tspan class="cls-95" x="9.18" y="0">5</tspan><tspan class="cls-98" x="14.44" y="0">0 = </tspan><tspan class="cls-53" x="29.45" y="0">9</tspan><tspan x="34.88" y="0">x</tspan></text><text class="cls-19" transform="translate(159.81 89.38)"><tspan class="cls-118" x="0" y="0">5</tspan><tspan x="5.13" y="0">1 - </tspan><tspan class="cls-27" x="16.29" y="0">1</tspan><tspan class="cls-78" x="19.52" y="0">0</tspan><tspan x="25.37" y="0">0 = </tspan><tspan class="cls-100" x="40.38" y="0">1</tspan><tspan class="cls-4" x="43.59" y="0">8</tspan><tspan x="48.85" y="0">x</tspan></text><text class="cls-19" transform="translate(297.76 74.55)"><tspan x="0" y="0">0 = </tspan><tspan class="cls-30" x="15.01" y="0">M</tspan><tspan class="cls-59" x="23.24" y="0">i</tspan><tspan class="cls-91" x="25.47" y="0">n</tspan><tspan class="cls-59" x="30.7" y="0">i</tspan><tspan class="cls-2" x="32.93" y="0">m</tspan><tspan class="cls-59" x="40.55" y="0">u</tspan><tspan x="45.89" y="0">m</tspan></text><text class="cls-19" transform="translate(297.76 89.38)"><tspan class="cls-110" x="0" y="0">1</tspan><tspan class="cls-108" x="3.23" y="0">0</tspan><tspan x="9.08" y="0">0 = </tspan><tspan class="cls-93" x="24.09" y="0">M</tspan><tspan class="cls-30" x="32.29" y="0">a</tspan><tspan class="cls-88" x="36.96" y="0">x</tspan><tspan class="cls-77" x="42.1" y="0">i</tspan><tspan class="cls-2" x="44.33" y="0">m</tspan><tspan class="cls-59" x="51.95" y="0">u</tspan><tspan class="cls-79" x="57.29" y="0">m</tspan></text><text class="cls-20" transform="translate(398.86 74.54)"><tspan class="cls-53" x="0" y="0">B</tspan><tspan class="cls-22" x="5.67" y="0">e</tspan><tspan class="cls-47" x="10.75" y="0">ss</tspan><tspan class="cls-123" x="18.61" y="0">e</tspan><tspan class="cls-87" x="23.76" y="0">r</tspan><tspan class="cls-93" x="27.17" y="0">e</tspan><tspan class="cls-14" x="32.32" y="0">r </tspan><tspan class="cls-117" x="38.1" y="0">K</tspan><tspan class="cls-123" x="44.04" y="0">o</tspan><tspan class="cls-59" x="49.67" y="0">m</tspan><tspan x="57.29" y="0">f</tspan><tspan class="cls-123" x="60.67" y="0">o</tspan><tspan class="cls-96" x="66.3" y="0">r</tspan><tspan x="69.88" y="0">t </tspan><tspan class="cls-122" x="75.51" y="0">m</tspan><tspan class="cls-59" x="83.22" y="0">i</tspan><tspan x="85.51" y="0">t </tspan></text><text class="cls-20" transform="translate(398.86 86.54)"><tspan class="cls-25" x="0" y="0">h</tspan><tspan class="cls-123" x="5.24" y="0">ö</tspan><tspan class="cls-8" x="10.87" y="0">r</tspan><tspan class="cls-123" x="14.28" y="0">e</tspan><tspan class="cls-87" x="19.43" y="0">r</tspan><tspan class="cls-122" x="22.84" y="0">e</tspan><tspan x="28" y="0">m </tspan><tspan class="cls-120" x="37.89" y="0">P</tspan><tspan class="cls-87" x="43.16" y="0">r</tspan><tspan class="cls-123" x="46.57" y="0">e</tspan><tspan class="cls-110" x="51.72" y="0">i</tspan><tspan x="54.05" y="0">s </tspan><tspan class="cls-124" x="60.22" y="0">u</tspan><tspan class="cls-3" x="65.56" y="0">n</tspan><tspan class="cls-79" x="70.82" y="0">d </tspan><tspan class="cls-64" x="78.52" y="0">M</tspan><tspan class="cls-113" x="86.67" y="0">at</tspan><tspan class="cls-122" x="94.55" y="0">e</tspan><tspan class="cls-113" x="99.71" y="0">r</tspan><tspan class="cls-75" x="103.16" y="0">ia</tspan><tspan x="110.13" y="0">l </tspan></text><text class="cls-20" transform="translate(398.86 98.54)"><tspan class="cls-51" x="0" y="0">V</tspan><tspan class="cls-123" x="7" y="0">e</tspan><tspan class="cls-120" x="12.15" y="0">r</tspan><tspan class="cls-123" x="15.61" y="0">b</tspan><tspan class="cls-85" x="21.12" y="0">r</tspan><tspan class="cls-61" x="24.58" y="0">a</tspan><tspan class="cls-83" x="29.2" y="0">u</tspan><tspan class="cls-22" x="34.49" y="0">c</tspan><tspan x="39.22" y="0">h</tspan></text><text class="cls-19" transform="translate(4.49 116.12)"><tspan class="cls-80" x="0" y="0">A</tspan><tspan class="cls-54" x="7.37" y="0">u</tspan><tspan class="cls-24" x="12.72" y="0">d</tspan><tspan class="cls-22" x="18.18" y="0">i</tspan><tspan class="cls-43" x="20.42" y="0">o</tspan><tspan class="cls-125" x="26.05" y="0">q</tspan><tspan class="cls-81" x="31.45" y="0">u</tspan><tspan class="cls-116" x="36.71" y="0">a</tspan><tspan class="cls-60" x="41.23" y="0">l</tspan><tspan class="cls-9" x="43.67" y="0">i</tspan><tspan class="cls-3" x="45.87" y="0">t</tspan><tspan class="cls-99" x="49.16" y="0">ä</tspan><tspan x="53.65" y="0">t</tspan></text><text class="cls-19" transform="translate(159.8 116.12)"><tspan class="cls-122" x="0" y="0">0</tspan><tspan class="cls-2" x="5.77" y="0">-</tspan><tspan class="cls-95" x="9.18" y="0">5</tspan><tspan class="cls-98" x="14.44" y="0">0 = </tspan><tspan class="cls-84" x="29.45" y="0">7</tspan><tspan x="34.4" y="0">x</tspan></text><text class="cls-19" transform="translate(159.8 130.95)"><tspan class="cls-118" x="0" y="0">5</tspan><tspan x="5.13" y="0">1 - </tspan><tspan class="cls-27" x="16.29" y="0">1</tspan><tspan class="cls-78" x="19.52" y="0">0</tspan><tspan x="25.37" y="0">0 = </tspan><tspan class="cls-73" x="40.38" y="0">2</tspan><tspan class="cls-43" x="45.61" y="0">0</tspan><tspan class="cls-98" x="51.34" y="0">x</tspan></text><text class="cls-19" transform="translate(297.75 116.12)"><tspan x="0" y="0">0 = </tspan><tspan class="cls-30" x="15.01" y="0">M</tspan><tspan class="cls-59" x="23.24" y="0">i</tspan><tspan class="cls-91" x="25.47" y="0">n</tspan><tspan class="cls-59" x="30.7" y="0">i</tspan><tspan class="cls-2" x="32.93" y="0">m</tspan><tspan class="cls-59" x="40.55" y="0">u</tspan><tspan x="45.89" y="0">m</tspan></text><text class="cls-19" transform="translate(297.75 130.95)"><tspan class="cls-110" x="0" y="0">1</tspan><tspan class="cls-108" x="3.23" y="0">0</tspan><tspan x="9.08" y="0">0 = </tspan><tspan class="cls-93" x="24.09" y="0">M</tspan><tspan class="cls-30" x="32.29" y="0">a</tspan><tspan class="cls-88" x="36.96" y="0">x</tspan><tspan class="cls-77" x="42.1" y="0">i</tspan><tspan class="cls-2" x="44.33" y="0">m</tspan><tspan class="cls-59" x="51.95" y="0">u</tspan><tspan class="cls-79" x="57.29" y="0">m</tspan></text><text class="cls-20" transform="translate(398.85 116.11)"><tspan class="cls-53" x="0" y="0">B</tspan><tspan class="cls-22" x="5.67" y="0">e</tspan><tspan class="cls-47" x="10.75" y="0">ss</tspan><tspan class="cls-123" x="18.61" y="0">e</tspan><tspan class="cls-87" x="23.76" y="0">r</tspan><tspan class="cls-93" x="27.17" y="0">e</tspan><tspan class="cls-14" x="32.32" y="0">r </tspan><tspan class="cls-11" x="38.1" y="0">A</tspan><tspan class="cls-52" x="45.66" y="0">u</tspan><tspan class="cls-92" x="50.97" y="0">d</tspan><tspan class="cls-43" x="56.5" y="0">io</tspan><tspan class="cls-121" x="64.44" y="0">q</tspan><tspan class="cls-95" x="69.93" y="0">u</tspan><tspan class="cls-100" x="75.18" y="0">al</tspan><tspan class="cls-59" x="82.44" y="0">i</tspan><tspan class="cls-123" x="84.73" y="0">t</tspan><tspan class="cls-113" x="88.17" y="0">ä</tspan><tspan x="92.75" y="0">t </tspan><tspan class="cls-122" x="98.38" y="0">m</tspan><tspan class="cls-59" x="106.09" y="0">i</tspan><tspan class="cls-79" x="108.38" y="0">t </tspan></text><text class="cls-20" transform="translate(398.85 128.11)"><tspan class="cls-25" x="0" y="0">h</tspan><tspan class="cls-123" x="5.24" y="0">ö</tspan><tspan class="cls-8" x="10.87" y="0">r</tspan><tspan class="cls-123" x="14.28" y="0">e</tspan><tspan class="cls-87" x="19.43" y="0">r</tspan><tspan class="cls-122" x="22.84" y="0">e</tspan><tspan x="28" y="0">m </tspan><tspan class="cls-120" x="37.89" y="0">P</tspan><tspan class="cls-87" x="43.16" y="0">r</tspan><tspan class="cls-123" x="46.57" y="0">e</tspan><tspan class="cls-110" x="51.72" y="0">i</tspan><tspan x="54.05" y="0">s </tspan><tspan class="cls-124" x="60.22" y="0">u</tspan><tspan class="cls-3" x="65.56" y="0">n</tspan><tspan class="cls-79" x="70.82" y="0">d </tspan><tspan class="cls-64" x="78.52" y="0">M</tspan><tspan class="cls-113" x="86.67" y="0">at</tspan><tspan class="cls-122" x="94.55" y="0">e</tspan><tspan class="cls-113" x="99.71" y="0">r</tspan><tspan class="cls-75" x="103.16" y="0">ia</tspan><tspan x="110.13" y="0">l </tspan></text><text class="cls-20" transform="translate(398.85 140.11)"><tspan class="cls-51" x="0" y="0">V</tspan><tspan class="cls-123" x="7" y="0">e</tspan><tspan class="cls-120" x="12.15" y="0">r</tspan><tspan class="cls-123" x="15.61" y="0">b</tspan><tspan class="cls-85" x="21.12" y="0">r</tspan><tspan class="cls-61" x="24.58" y="0">a</tspan><tspan class="cls-83" x="29.2" y="0">u</tspan><tspan class="cls-70" x="34.49" y="0">c</tspan><tspan x="39.22" y="0">h</tspan></text><text class="cls-19" transform="translate(4.48 157.19)"><tspan class="cls-122" x="0" y="0">M</tspan><tspan class="cls-99" x="8.21" y="0">u</tspan><tspan x="13.48" y="0">s</tspan><tspan class="cls-16" x="17.32" y="0">i</tspan><tspan class="cls-9" x="19.55" y="0">k </tspan><tspan class="cls-107" x="26.51" y="0">B</tspan><tspan class="cls-67" x="32.07" y="0">e</tspan><tspan class="cls-24" x="37.24" y="0">d</tspan><tspan class="cls-22" x="42.7" y="0">i</tspan><tspan class="cls-73" x="44.94" y="0">e</tspan><tspan class="cls-116" x="50.08" y="0">n</tspan><tspan class="cls-16" x="55.28" y="0">u</tspan><tspan x="60.62" y="0">ng</tspan></text><text class="cls-19" transform="translate(159.79 157.19)"><tspan class="cls-36" x="0" y="0">T</tspan><tspan class="cls-22" x="4.9" y="0">ou</tspan><tspan x="15.84" y="0">ch = </tspan><tspan class="cls-66" x="35.21" y="0">3</tspan><tspan x="40.45" y="0">x</tspan></text><text class="cls-19" transform="translate(159.79 172.02)"><tspan class="cls-22" x="0" y="0">K</tspan><tspan class="cls-16" x="6" y="0">n</tspan><tspan class="cls-25" x="11.24" y="0">ö</tspan><tspan class="cls-62" x="16.86" y="0">p</tspan><tspan class="cls-106" x="22.25" y="0">f</tspan><tspan class="cls-98" x="25.45" y="0">e = </tspan><tspan class="cls-89" x="39.89" y="0">2</tspan><tspan class="cls-1" x="44.94" y="0">4</tspan><tspan class="cls-98" x="50.27" y="0">x</tspan></text><text class="cls-20" transform="translate(398.85 157.18)"><tspan class="cls-12" x="0" y="0">M</tspan><tspan class="cls-95" x="8.17" y="0">u</tspan><tspan class="cls-43" x="13.42" y="0">s</tspan><tspan class="cls-123" x="17.37" y="0">i</tspan><tspan class="cls-79" x="19.74" y="0">k </tspan><tspan class="cls-53" x="26.86" y="0">B</tspan><tspan class="cls-96" x="32.53" y="0">e</tspan><tspan class="cls-92" x="37.67" y="0">d</tspan><tspan class="cls-43" x="43.2" y="0">i</tspan><tspan class="cls-122" x="45.54" y="0">e</tspan><tspan class="cls-25" x="50.7" y="0">n</tspan><tspan class="cls-123" x="55.93" y="0">u</tspan><tspan class="cls-47" x="61.27" y="0">n</tspan><tspan class="cls-79" x="66.49" y="0">g </tspan><tspan class="cls-122" x="73.98" y="0">m</tspan><tspan class="cls-77" x="81.69" y="0">i</tspan><tspan x="83.98" y="0">t </tspan></text><text class="cls-20" transform="translate(398.85 169.18)"><tspan class="cls-122" x="0" y="0">K</tspan><tspan class="cls-43" x="6.29" y="0">n</tspan><tspan class="cls-123" x="11.53" y="0">ö</tspan><tspan class="cls-79" x="17.16" y="0">p</tspan><tspan class="cls-2" x="22.56" y="0">f</tspan><tspan class="cls-123" x="25.95" y="0">e</tspan><tspan x="31.1" y="0">n</tspan></text><text class="cls-19" transform="translate(4.48 198.26)"><tspan class="cls-107" x="0" y="0">M</tspan><tspan class="cls-106" x="8.2" y="0">a</tspan><tspan class="cls-33" x="12.69" y="0">t</tspan><tspan class="cls-47" x="15.8" y="0">e</tspan><tspan class="cls-6" x="20.94" y="0">r</tspan><tspan class="cls-62" x="24.33" y="0">i</tspan><tspan class="cls-63" x="26.51" y="0">a</tspan><tspan x="31.03" y="0">l</tspan></text><text class="cls-19" transform="translate(159.79 198.26)"><tspan class="cls-81" x="0" y="0">A</tspan><tspan class="cls-101" x="7.44" y="0">l</tspan><tspan class="cls-16" x="9.82" y="0">u</tspan><tspan class="cls-22" x="15.16" y="0">m</tspan><tspan class="cls-59" x="22.81" y="0">i</tspan><tspan class="cls-2" x="25.04" y="0">n</tspan><tspan class="cls-9" x="30.26" y="0">i</tspan><tspan class="cls-16" x="32.46" y="0">u</tspan><tspan x="37.8" y="0">m = </tspan><tspan class="cls-120" x="54.77" y="0">1</tspan><tspan class="cls-71" x="57.91" y="0">6</tspan><tspan x="63.1" y="0">x</tspan></text><text class="cls-19" transform="translate(159.79 213.09)"><tspan class="cls-114" x="0" y="0">K</tspan><tspan class="cls-16" x="5.64" y="0">u</tspan><tspan class="cls-62" x="10.98" y="0">n</tspan><tspan class="cls-43" x="16.17" y="0">s</tspan><tspan class="cls-111" x="20.09" y="0">t</tspan><tspan class="cls-43" x="23.43" y="0">s</tspan><tspan class="cls-33" x="27.35" y="0">t</tspan><tspan class="cls-97" x="30.46" y="0">o</tspan><tspan x="36.03" y="0">ﬀ = </tspan><tspan class="cls-4" x="51.17" y="0">1</tspan><tspan class="cls-115" x="54.24" y="0">1</tspan><tspan x="57.3" y="0">x</tspan></text><text class="cls-20" transform="translate(398.85 198.25)"><tspan class="cls-117" x="0" y="0">K</tspan><tspan class="cls-123" x="5.94" y="0">o</tspan><tspan x="11.57" y="0">p</tspan><tspan class="cls-100" x="16.97" y="0">f</tspan><tspan class="cls-25" x="20.4" y="0">h</tspan><tspan class="cls-123" x="25.64" y="0">ö</tspan><tspan class="cls-87" x="31.27" y="0">r</tspan><tspan class="cls-93" x="34.68" y="0">e</tspan><tspan class="cls-68" x="39.83" y="0">r</tspan><tspan class="cls-43" x="43.28" y="0">m</tspan><tspan class="cls-95" x="50.95" y="0">u</tspan><tspan class="cls-47" x="56.2" y="0">s</tspan><tspan class="cls-70" x="60.13" y="0">c</tspan><tspan class="cls-110" x="64.86" y="0">h</tspan><tspan class="cls-96" x="70.1" y="0">e</tspan><tspan x="75.24" y="0">l </tspan><tspan class="cls-91" x="80.09" y="0">a</tspan><tspan class="cls-88" x="84.72" y="0">u</tspan><tspan x="89.96" y="0">s </tspan></text><text class="cls-20" transform="translate(398.85 210.25)"><tspan x="0" y="0">A</tspan><tspan class="cls-120" x="7.62" y="0">l</tspan><tspan class="cls-124" x="10.15" y="0">u</tspan><tspan class="cls-119" x="15.49" y="0">m</tspan><tspan class="cls-123" x="23.2" y="0">i</tspan><tspan class="cls-3" x="25.57" y="0">n</tspan><tspan class="cls-52" x="30.83" y="0">i</tspan><tspan class="cls-123" x="33.17" y="0">u</tspan><tspan x="38.51" y="0">m</tspan></text></svg>