<svg xmlns="http://www.w3.org/2000/svg" viewBox="0 0 524.7 233.88"><defs><style>.cls-1{fill:none;stroke:#000;stroke-miterlimit:10;}.cls-2{font-size:12px;font-family:ProbaPro-SemiBold, Proba Pro;font-weight:600;}.cls-3{letter-spacing:0.05em;}.cls-4{letter-spacing:0.04em;}.cls-5{letter-spacing:0.06em;}.cls-6{letter-spacing:0.04em;}.cls-7{letter-spacing:0.04em;}.cls-8{letter-spacing:-0.04em;}.cls-9{letter-spacing:0.05em;}.cls-10{letter-spacing:0.06em;}.cls-11{letter-spacing:0.06em;}.cls-12{letter-spacing:0.04em;}.cls-13{letter-spacing:0.04em;}.cls-14{letter-spacing:0.05em;}.cls-15{letter-spacing:0.02em;}.cls-16{letter-spacing:0.04em;}.cls-17{letter-spacing:0.03em;}.cls-18{letter-spacing:0.01em;}.cls-19{letter-spacing:0em;}.cls-20{letter-spacing:-0.03em;}.cls-21{letter-spacing:0.06em;}.cls-22{letter-spacing:0.02em;}.cls-23{letter-spacing:0.05em;}.cls-24{letter-spacing:0.06em;}.cls-25{letter-spacing:0.05em;}.cls-26{letter-spacing:0.03em;}.cls-27{letter-spacing:0.06em;}.cls-28{letter-spacing:0.05em;}.cls-29{letter-spacing:0.05em;}.cls-30{letter-spacing:-0.04em;}.cls-31{letter-spacing:-0.04em;}.cls-32,.cls-39{font-size:10px;}.cls-32{font-family:Roboto-Medium, Roboto;font-weight:500;}.cls-33{letter-spacing:0.01em;}.cls-34{letter-spacing:0.01em;}.cls-35{letter-spacing:0.01em;}.cls-36{letter-spacing:0em;}.cls-37{letter-spacing:0em;}.cls-38{letter-spacing:0.01em;}.cls-39{font-family:Roboto-Regular, Roboto;}.cls-40{letter-spacing:0.01em;}.cls-41{letter-spacing:0.01em;}.cls-42{letter-spacing:0em;}.cls-43{letter-spacing:-0.07em;}.cls-44{letter-spacing:-0.05em;}.cls-45{letter-spacing:0.01em;}.cls-46{letter-spacing:-0.01em;}.cls-47{letter-spacing:0em;}.cls-48{letter-spacing:-0.05em;}.cls-49{letter-spacing:-0.01em;}.cls-50{letter-spacing:0.01em;}.cls-51{letter-spacing:0.01em;}.cls-52{letter-spacing:0em;}.cls-53{letter-spacing:-0.01em;}.cls-54{letter-spacing:-0.01em;}.cls-55{letter-spacing:0.01em;}.cls-56{letter-spacing:-0.01em;}.cls-57{letter-spacing:0.04em;}.cls-58{letter-spacing:0.05em;}.cls-59{letter-spacing:0.02em;}.cls-60{letter-spacing:0.02em;}.cls-61{letter-spacing:0em;}.cls-62{letter-spacing:-0.04em;}.cls-63{letter-spacing:0.02em;}.cls-64{letter-spacing:-0.05em;}.cls-65{letter-spacing:0em;}.cls-66{letter-spacing:-0.04em;}.cls-67{letter-spacing:0.01em;}.cls-68{letter-spacing:0.01em;}.cls-69{letter-spacing:0.01em;}.cls-70{letter-spacing:-0.01em;}.cls-71{letter-spacing:0.01em;}.cls-72{letter-spacing:0em;}.cls-73{letter-spacing:0.04em;}.cls-74{letter-spacing:0.01em;}.cls-75{letter-spacing:0em;}.cls-76{letter-spacing:0.01em;}.cls-77{letter-spacing:0.01em;}.cls-78{letter-spacing:0.01em;}.cls-79{letter-spacing:0.01em;}.cls-80{letter-spacing:0em;}.cls-81{letter-spacing:0.02em;}.cls-82{letter-spacing:0em;}.cls-83{letter-spacing:0em;}.cls-84{letter-spacing:0.03em;}.cls-85{letter-spacing:-0.01em;}.cls-86{letter-spacing:-0.05em;}.cls-87{letter-spacing:0.02em;}.cls-88{letter-spacing:0.02em;}.cls-89{letter-spacing:-0.01em;}.cls-90{letter-spacing:0em;}.cls-91{letter-spacing:0.02em;}</style></defs><g id="Layer_2" data-name="Layer 2"><g id="Layer_1-2" data-name="Layer 1"><line class="cls-1" y1="0.5" x2="155.81" y2="0.5"/><line class="cls-1" x1="0.5" y1="32.46" x2="0.5" y2="1"/><line class="cls-1" x1="155.81" y1="0.5" x2="293.76" y2="0.5"/><line class="cls-1" x1="155.81" y1="32.46" x2="155.81" y2="1"/><line class="cls-1" x1="293.76" y1="0.5" x2="394.87" y2="0.5"/><line class="cls-1" x1="293.76" y1="32.46" x2="293.76" y2="1"/><line class="cls-1" x1="394.87" y1="0.5" x2="524.7" y2="0.5"/><line class="cls-1" x1="394.87" y1="32.46" x2="394.87" y2="1"/><line class="cls-1" x1="524.2" y1="32.46" x2="524.2" y2="1"/><line class="cls-1" y1="32.96" x2="155.81" y2="32.96"/><line class="cls-1" x1="0.5" y1="65.78" x2="0.5" y2="33.46"/><line class="cls-1" x1="155.81" y1="32.96" x2="293.76" y2="32.96"/><line class="cls-1" x1="155.81" y1="65.78" x2="155.81" y2="33.46"/><line class="cls-1" x1="293.76" y1="32.96" x2="394.87" y2="32.96"/><line class="cls-1" x1="293.76" y1="65.78" x2="293.76" y2="33.46"/><line class="cls-1" x1="394.87" y1="32.96" x2="524.7" y2="32.96"/><line class="cls-1" x1="394.87" y1="65.78" x2="394.87" y2="33.46"/><line class="cls-1" x1="524.2" y1="65.78" x2="524.2" y2="33.46"/><line class="cls-1" y1="66.28" x2="155.81" y2="66.28"/><line class="cls-1" x1="0.5" y1="108.25" x2="0.5" y2="66.77"/><line class="cls-1" x1="155.81" y1="66.28" x2="293.76" y2="66.28"/><line class="cls-1" x1="155.81" y1="108.25" x2="155.81" y2="66.77"/><line class="cls-1" x1="293.76" y1="66.28" x2="394.87" y2="66.28"/><line class="cls-1" x1="293.76" y1="108.25" x2="293.76" y2="66.77"/><line class="cls-1" x1="394.87" y1="66.28" x2="524.7" y2="66.28"/><line class="cls-1" x1="394.87" y1="108.25" x2="394.87" y2="66.77"/><line class="cls-1" x1="524.2" y1="108.25" x2="524.2" y2="66.77"/><line class="cls-1" y1="108.75" x2="155.81" y2="108.75"/><line class="cls-1" x1="0.5" y1="150.73" x2="0.5" y2="109.25"/><line class="cls-1" x1="155.81" y1="108.75" x2="293.76" y2="108.75"/><line class="cls-1" x1="155.81" y1="150.73" x2="155.81" y2="109.25"/><line class="cls-1" x1="293.76" y1="108.75" x2="394.87" y2="108.75"/><line class="cls-1" x1="293.76" y1="150.73" x2="293.76" y2="109.25"/><line class="cls-1" x1="394.87" y1="108.75" x2="524.7" y2="108.75"/><line class="cls-1" x1="394.87" y1="150.73" x2="394.87" y2="109.25"/><line class="cls-1" x1="524.2" y1="150.73" x2="524.2" y2="109.25"/><line class="cls-1" y1="151.23" x2="155.81" y2="151.23"/><line class="cls-1" x1="0.5" y1="191.81" x2="0.5" y2="151.73"/><line class="cls-1" x1="155.81" y1="151.23" x2="293.76" y2="151.23"/><line class="cls-1" x1="155.81" y1="191.81" x2="155.81" y2="151.73"/><line class="cls-1" x1="293.76" y1="151.23" x2="394.87" y2="151.23"/><line class="cls-1" x1="293.76" y1="191.81" x2="293.76" y2="151.73"/><line class="cls-1" x1="394.87" y1="151.23" x2="524.7" y2="151.23"/><line class="cls-1" x1="394.87" y1="191.81" x2="394.87" y2="151.73"/><line class="cls-1" x1="524.2" y1="191.81" x2="524.2" y2="151.73"/><line class="cls-1" y1="192.31" x2="155.81" y2="192.31"/><line class="cls-1" x1="0.5" y1="232.88" x2="0.5" y2="192.81"/><line class="cls-1" x1="155.81" y1="192.31" x2="293.76" y2="192.31"/><line class="cls-1" x1="155.81" y1="232.88" x2="155.81" y2="192.81"/><line class="cls-1" x1="293.76" y1="192.31" x2="394.87" y2="192.31"/><line class="cls-1" x1="293.76" y1="232.88" x2="293.76" y2="192.81"/><line class="cls-1" x1="394.87" y1="192.31" x2="524.7" y2="192.31"/><line class="cls-1" x1="394.87" y1="232.88" x2="394.87" y2="192.81"/><line class="cls-1" x1="524.2" y1="232.88" x2="524.2" y2="192.81"/><line class="cls-1" y1="233.38" x2="155.81" y2="233.38"/><line class="cls-1" x1="155.81" y1="233.38" x2="293.76" y2="233.38"/><line class="cls-1" x1="293.76" y1="233.38" x2="394.87" y2="233.38"/><line class="cls-1" x1="394.87" y1="233.38" x2="524.7" y2="233.38"/><text class="cls-2" transform="translate(19.8 13.45)"><tspan class="cls-3">D</tspan><tspan class="cls-4" x="8.98" y="0">ES</tspan><tspan class="cls-3" x="22.45" y="0">I</tspan><tspan class="cls-5" x="25.82" y="0">G</tspan><tspan class="cls-6" x="35.14" y="0">N</tspan><tspan class="cls-7" x="44.11" y="0"> </tspan><tspan class="cls-8" x="47.34" y="0">P</tspan><tspan class="cls-9" x="53.24" y="0">A</tspan><tspan class="cls-10" x="62.93" y="0">R</tspan><tspan class="cls-9" x="70.27" y="0">A</tspan><tspan class="cls-11" x="79.96" y="0">M</tspan><tspan class="cls-12" x="90.27" y="0">E</tspan><tspan class="cls-13" x="96.6" y="0">T</tspan><tspan class="cls-14" x="103.7" y="0">E</tspan><tspan x="110.09" y="0">R</tspan></text><text class="cls-2" transform="translate(177.37 13.45)"><tspan class="cls-13">F</tspan><tspan class="cls-14" x="5.96" y="0">EE</tspan><tspan class="cls-3" x="18.73" y="0">D</tspan><tspan class="cls-15" x="27.71" y="0">B</tspan><tspan x="34.62" y="0">A</tspan><tspan class="cls-16" x="43.76" y="0">C</tspan><tspan class="cls-17" x="52.52" y="0">K</tspan><tspan class="cls-6" x="60.25" y="0">S</tspan><tspan class="cls-7" x="67.33" y="0"> </tspan><tspan class="cls-18" x="70.56" y="0">A</tspan><tspan class="cls-6" x="79.81" y="0">U</tspan><tspan class="cls-19" x="88.17" y="0">S </tspan></text><text class="cls-2" transform="translate(188.23 27.85)">D<tspan class="cls-20" x="8.36" y="0">A</tspan><tspan class="cls-13" x="17.09" y="0">T</tspan><tspan class="cls-14" x="24.19" y="0">E</tspan><tspan class="cls-21" x="30.58" y="0">N</tspan><tspan class="cls-22" x="39.84" y="0">B</tspan><tspan class="cls-23" x="46.75" y="0">A</tspan><tspan class="cls-24" x="56.45" y="0">N</tspan><tspan x="65.7" y="0">K</tspan></text><text class="cls-2" transform="translate(305.79 13.45)"><tspan class="cls-23">A</tspan><tspan class="cls-24" x="9.7" y="0">N</tspan><tspan class="cls-11" x="18.95" y="0">M</tspan><tspan class="cls-14" x="29.27" y="0">E</tspan><tspan class="cls-25" x="35.65" y="0">R</tspan><tspan class="cls-26" x="42.84" y="0">K</tspan><tspan class="cls-27" x="50.64" y="0">U</tspan><tspan class="cls-28" x="59.26" y="0">N</tspan><tspan x="68.39" y="0">G</tspan></text><text class="cls-2" transform="translate(431.62 13.45)"><tspan class="cls-29">R</tspan><tspan class="cls-9" x="7.18" y="0">E</tspan><tspan class="cls-13" x="13.51" y="0">S</tspan><tspan class="cls-27" x="20.54" y="0">U</tspan><tspan class="cls-30" x="29.16" y="0">L</tspan><tspan class="cls-31" x="34.18" y="0">T</tspan><tspan class="cls-20" x="40.42" y="0">A</tspan><tspan x="49.14" y="0">T</tspan></text><text class="cls-32" transform="translate(4.5 47.44)"><tspan class="cls-33">G</tspan><tspan class="cls-34" x="6.96" y="0">ru</tspan><tspan class="cls-35" x="16.25" y="0">n</tspan><tspan class="cls-36" x="21.9" y="0">d</tspan><tspan class="cls-37" x="27.59" y="0">f</tspan><tspan class="cls-38" x="31.09" y="0">or</tspan><tspan x="40.5" y="0">m</tspan></text><text class="cls-39" transform="translate(159.81 47.44)">E<tspan class="cls-40" x="5.68" y="0">c</tspan><tspan class="cls-41" x="11.04" y="0">k</tspan><tspan class="cls-42" x="16.25" y="0">i</tspan><tspan x="18.71" y="0">g = </tspan><tspan class="cls-43" x="34.76" y="0">1</tspan><tspan class="cls-44" x="39.63" y="0">1</tspan><tspan x="44.74" y="0">x</tspan></text><text class="cls-39" transform="translate(159.81 62.27)"><tspan class="cls-45">O</tspan><tspan class="cls-46" x="7.02" y="0">v</tspan><tspan class="cls-47" x="11.8" y="0">a</tspan><tspan x="17.26" y="0">l = </tspan><tspan class="cls-48" x="30.12" y="0">1</tspan><tspan class="cls-49" x="35.21" y="0">6</tspan><tspan x="40.73" y="0">x</tspan></text><text class="cls-39" transform="translate(398.87 47.44)"><tspan class="cls-45">O</tspan><tspan class="cls-46" x="7.02" y="0">v</tspan><tspan class="cls-47" x="11.8" y="0">a</tspan><tspan class="cls-50" x="17.26" y="0">l</tspan><tspan x="19.75" y="0">e </tspan><tspan class="cls-34" x="27.52" y="0">G</tspan><tspan class="cls-40" x="34.44" y="0">r</tspan><tspan class="cls-35" x="37.94" y="0">u</tspan><tspan class="cls-51" x="43.55" y="0">n</tspan><tspan class="cls-52" x="49.13" y="0">d</tspan><tspan class="cls-53" x="54.8" y="0">f</tspan><tspan class="cls-51" x="58.2" y="0">o</tspan><tspan class="cls-40" x="63.97" y="0">r</tspan><tspan x="67.47" y="0">m</tspan></text><text class="cls-32" transform="translate(4.5 80.75)"><tspan class="cls-54">K</tspan><tspan class="cls-55" x="6.2" y="0">o</tspan><tspan x="11.99" y="0">m</tspan><tspan class="cls-56" x="20.69" y="0">f</tspan><tspan class="cls-38" x="24.18" y="0">o</tspan><tspan class="cls-57" x="29.98" y="0">r</tspan><tspan x="33.86" y="0">t</tspan></text><text class="cls-39" transform="translate(159.81 80.75)"><tspan class="cls-58">0</tspan><tspan class="cls-59" x="6.12" y="0">-</tspan><tspan class="cls-60" x="9.08" y="0">5</tspan><tspan x="14.88" y="0">0 = </tspan><tspan class="cls-35" x="30.93" y="0">9</tspan><tspan x="36.64" y="0">x</tspan></text><text class="cls-39" transform="translate(159.81 95.58)"><tspan class="cls-61">5</tspan><tspan x="5.58" y="0">1 - </tspan><tspan class="cls-62" x="18.9" y="0">1</tspan><tspan class="cls-63" x="24.09" y="0">0</tspan><tspan x="29.93" y="0">0 = </tspan><tspan class="cls-64" x="45.99" y="0">1</tspan><tspan class="cls-34" x="51.11" y="0">8</tspan><tspan x="56.84" y="0">x</tspan></text><text class="cls-39" transform="translate(297.76 80.75)">0 = <tspan class="cls-36" x="16.05" y="0">Mi</tspan><tspan class="cls-65" x="27.31" y="0">n</tspan><tspan class="cls-50" x="32.86" y="0">i</tspan><tspan class="cls-51" x="35.35" y="0">m</tspan><tspan class="cls-55" x="44.18" y="0">u</tspan><tspan x="49.78" y="0">m</tspan></text><text class="cls-39" transform="translate(297.76 95.58)"><tspan class="cls-66">1</tspan><tspan class="cls-63" x="5.21" y="0">0</tspan><tspan x="11.05" y="0">0 = </tspan><tspan class="cls-67" x="27.1" y="0">M</tspan><tspan class="cls-33" x="35.89" y="0">a</tspan><tspan class="cls-42" x="41.48" y="0">x</tspan><tspan class="cls-50" x="46.47" y="0">i</tspan><tspan class="cls-51" x="48.96" y="0">m</tspan><tspan class="cls-35" x="57.79" y="0">u</tspan><tspan x="63.4" y="0">m</tspan></text><text class="cls-39" transform="translate(398.86 80.75)"><tspan class="cls-35">B</tspan><tspan class="cls-67" x="6.32" y="0">es</tspan><tspan class="cls-47" x="16.87" y="0">s</tspan><tspan class="cls-68" x="22.05" y="0">e</tspan><tspan class="cls-47" x="27.47" y="0">r</tspan><tspan class="cls-69" x="30.88" y="0">e</tspan><tspan x="36.31" y="0">r </tspan><tspan class="cls-70" x="42.17" y="0">K</tspan><tspan class="cls-71" x="48.32" y="0">o</tspan><tspan class="cls-72" x="54.11" y="0">m</tspan><tspan class="cls-53" x="62.86" y="0">f</tspan><tspan class="cls-71" x="66.25" y="0">o</tspan><tspan class="cls-73" x="72.04" y="0">r</tspan><tspan x="75.84" y="0">t </tspan><tspan class="cls-47" x="81.58" y="0">m</tspan><tspan class="cls-74" x="90.37" y="0">i</tspan><tspan x="92.91" y="0">t </tspan></text><text class="cls-39" transform="translate(398.86 92.75)"><tspan class="cls-51">h</tspan><tspan class="cls-71" x="5.58" y="0">öh</tspan><tspan class="cls-68" x="16.95" y="0">e</tspan><tspan class="cls-75" x="22.38" y="0">r</tspan><tspan class="cls-41" x="25.77" y="0">e</tspan><tspan x="31.21" y="0">m </tspan><tspan class="cls-76" x="42.45" y="0">P</tspan><tspan class="cls-47" x="48.83" y="0">r</tspan><tspan class="cls-35" x="52.23" y="0">e</tspan><tspan class="cls-75" x="57.62" y="0">i</tspan><tspan x="60.06" y="0">s </tspan><tspan class="cls-77" x="67.69" y="0">u</tspan><tspan class="cls-76" x="73.28" y="0">n</tspan><tspan x="78.87" y="0">d </tspan></text><text class="cls-39" transform="translate(398.86 104.75)"><tspan class="cls-50">M</tspan><tspan class="cls-51" x="8.79" y="0">a</tspan><tspan class="cls-53" x="14.3" y="0">t</tspan><tspan class="cls-69" x="17.49" y="0">e</tspan><tspan class="cls-51" x="22.91" y="0">r</tspan><tspan x="26.37" y="0">i</tspan><tspan class="cls-47" x="28.79" y="0">a</tspan><tspan class="cls-51" x="34.25" y="0">l</tspan><tspan class="cls-49" x="36.75" y="0">v</tspan><tspan class="cls-68" x="41.5" y="0">e</tspan><tspan class="cls-78" x="46.93" y="0">r</tspan><tspan class="cls-79" x="50.43" y="0">b</tspan><tspan class="cls-71" x="56.14" y="0">r</tspan><tspan class="cls-47" x="59.6" y="0">a</tspan><tspan class="cls-35" x="65.06" y="0">u</tspan><tspan class="cls-40" x="70.66" y="0">c</tspan><tspan x="76.02" y="0">h</tspan></text><text class="cls-32" transform="translate(4.49 123.23)">A<tspan class="cls-34" x="6.66" y="0">u</tspan><tspan class="cls-50" x="12.32" y="0">d</tspan><tspan class="cls-42" x="18.03" y="0">i</tspan><tspan class="cls-38" x="20.62" y="0">o</tspan><tspan class="cls-71" x="26.41" y="0">q</tspan><tspan class="cls-51" x="32.17" y="0">u</tspan><tspan class="cls-42" x="37.8" y="0">al</tspan><tspan class="cls-34" x="45.84" y="0">i</tspan><tspan class="cls-55" x="48.51" y="0">t</tspan><tspan class="cls-51" x="51.92" y="0">ä</tspan><tspan x="57.4" y="0">t</tspan></text><text class="cls-39" transform="translate(159.8 123.23)"><tspan class="cls-58">0</tspan><tspan class="cls-59" x="6.12" y="0">-</tspan><tspan class="cls-60" x="9.08" y="0">5</tspan><tspan x="14.88" y="0">0 = </tspan><tspan class="cls-80" x="30.93" y="0">7</tspan><tspan x="36.52" y="0">x</tspan></text><text class="cls-39" transform="translate(159.8 138.06)"><tspan class="cls-61">5</tspan><tspan x="5.58" y="0">1 - </tspan><tspan class="cls-62" x="18.9" y="0">1</tspan><tspan class="cls-63" x="24.09" y="0">0</tspan><tspan x="29.93" y="0">0 = 2</tspan><tspan class="cls-81" x="51.6" y="0">0</tspan><tspan x="57.37" y="0">x</tspan></text><text class="cls-39" transform="translate(297.75 123.23)">0 = <tspan class="cls-36" x="16.05" y="0">Mi</tspan><tspan class="cls-65" x="27.31" y="0">n</tspan><tspan class="cls-50" x="32.86" y="0">i</tspan><tspan class="cls-51" x="35.35" y="0">m</tspan><tspan class="cls-55" x="44.18" y="0">u</tspan><tspan x="49.78" y="0">m</tspan></text><text class="cls-39" transform="translate(297.75 138.06)"><tspan class="cls-66">1</tspan><tspan class="cls-63" x="5.21" y="0">0</tspan><tspan x="11.05" y="0">0 = </tspan><tspan class="cls-67" x="27.1" y="0">M</tspan><tspan class="cls-33" x="35.89" y="0">a</tspan><tspan class="cls-42" x="41.48" y="0">x</tspan><tspan class="cls-50" x="46.47" y="0">i</tspan><tspan class="cls-51" x="48.96" y="0">m</tspan><tspan class="cls-35" x="57.79" y="0">u</tspan><tspan x="63.4" y="0">m</tspan></text><text class="cls-39" transform="translate(398.85 123.23)"><tspan class="cls-35">B</tspan><tspan class="cls-67" x="6.32" y="0">es</tspan><tspan class="cls-47" x="16.87" y="0">s</tspan><tspan class="cls-68" x="22.05" y="0">e</tspan><tspan class="cls-75" x="27.47" y="0">r</tspan><tspan class="cls-68" x="30.87" y="0">e</tspan><tspan x="36.3" y="0">r A</tspan><tspan class="cls-71" x="48.68" y="0">u</tspan><tspan class="cls-36" x="54.27" y="0">d</tspan><tspan class="cls-52" x="59.96" y="0">i</tspan><tspan class="cls-35" x="62.42" y="0">o</tspan><tspan class="cls-36" x="68.21" y="0">qu</tspan><tspan class="cls-47" x="79.51" y="0">a</tspan><tspan class="cls-82" x="84.97" y="0">l</tspan><tspan class="cls-69" x="87.4" y="0">i</tspan><tspan class="cls-83" x="89.96" y="0">t</tspan><tspan class="cls-76" x="93.27" y="0">ä</tspan><tspan x="98.78" y="0">t </tspan></text><text class="cls-39" transform="translate(398.85 135.23)"><tspan class="cls-65">m</tspan><tspan class="cls-69" x="8.79" y="0">i</tspan><tspan x="11.35" y="0">t </tspan><tspan class="cls-51" x="17.09" y="0">h</tspan><tspan class="cls-71" x="22.67" y="0">öh</tspan><tspan class="cls-68" x="34.04" y="0">e</tspan><tspan class="cls-47" x="39.47" y="0">r</tspan><tspan class="cls-45" x="42.87" y="0">e</tspan><tspan x="48.31" y="0">m </tspan><tspan class="cls-51" x="59.55" y="0">P</tspan><tspan class="cls-82" x="65.93" y="0">r</tspan><tspan class="cls-55" x="69.32" y="0">e</tspan><tspan class="cls-82" x="74.71" y="0">i</tspan><tspan x="77.15" y="0">s </tspan><tspan class="cls-71" x="84.78" y="0">u</tspan><tspan class="cls-51" x="90.37" y="0">n</tspan><tspan x="95.96" y="0">d </tspan></text><text class="cls-39" transform="translate(398.85 147.23)"><tspan class="cls-50">M</tspan><tspan class="cls-51" x="8.79" y="0">a</tspan><tspan class="cls-53" x="14.3" y="0">t</tspan><tspan class="cls-69" x="17.49" y="0">e</tspan><tspan class="cls-51" x="22.91" y="0">r</tspan><tspan x="26.37" y="0">i</tspan><tspan class="cls-47" x="28.79" y="0">a</tspan><tspan class="cls-51" x="34.25" y="0">l</tspan><tspan class="cls-49" x="36.75" y="0">v</tspan><tspan class="cls-68" x="41.5" y="0">e</tspan><tspan class="cls-78" x="46.93" y="0">r</tspan><tspan class="cls-79" x="50.43" y="0">b</tspan><tspan class="cls-71" x="56.14" y="0">r</tspan><tspan class="cls-47" x="59.6" y="0">a</tspan><tspan class="cls-35" x="65.06" y="0">u</tspan><tspan class="cls-40" x="70.66" y="0">c</tspan><tspan x="76.02" y="0">h</tspan></text><text class="cls-32" transform="translate(4.48 165.71)"><tspan class="cls-40">M</tspan><tspan class="cls-51" x="8.88" y="0">u</tspan><tspan class="cls-67" x="14.5" y="0">s</tspan><tspan class="cls-51" x="19.71" y="0">i</tspan><tspan x="22.34" y="0">k </tspan><tspan class="cls-51" x="30.05" y="0">B</tspan><tspan class="cls-45" x="36.42" y="0">e</tspan><tspan class="cls-50" x="41.93" y="0">d</tspan><tspan class="cls-65" x="47.64" y="0">i</tspan><tspan class="cls-45" x="50.22" y="0">e</tspan><tspan class="cls-35" x="55.73" y="0">n</tspan><tspan class="cls-78" x="61.38" y="0">u</tspan><tspan class="cls-77" x="67.04" y="0">n</tspan><tspan x="72.69" y="0">g</tspan></text><text class="cls-39" transform="translate(159.79 165.71)"><tspan class="cls-43">T</tspan><tspan class="cls-51" x="5.22" y="0">o</tspan><tspan class="cls-55" x="10.99" y="0">u</tspan><tspan class="cls-74" x="16.59" y="0">c</tspan><tspan x="21.95" y="0">h = </tspan><tspan class="cls-55" x="37.89" y="0">3</tspan><tspan x="43.6" y="0">x</tspan></text><text class="cls-39" transform="translate(159.79 180.54)"><tspan class="cls-84">K</tspan><tspan class="cls-50" x="6.52" y="0">n</tspan><tspan class="cls-71" x="12.1" y="0">ö</tspan><tspan class="cls-80" x="17.88" y="0">p</tspan><tspan class="cls-53" x="23.46" y="0">f</tspan><tspan x="26.85" y="0">e = 2</tspan><tspan class="cls-85" x="48.2" y="0">4</tspan><tspan x="53.75" y="0">x</tspan></text><text class="cls-39" transform="translate(398.85 165.71)"><tspan class="cls-38">M</tspan><tspan class="cls-42" x="8.83" y="0">u</tspan><tspan class="cls-47" x="14.38" y="0">s</tspan><tspan class="cls-36" x="19.56" y="0">i</tspan><tspan x="22.04" y="0">k </tspan><tspan class="cls-35" x="29.58" y="0">B</tspan><tspan class="cls-45" x="35.9" y="0">e</tspan><tspan class="cls-42" x="41.33" y="0">d</tspan><tspan class="cls-65" x="47.01" y="0">i</tspan><tspan class="cls-69" x="49.47" y="0">e</tspan><tspan class="cls-51" x="54.9" y="0">n</tspan><tspan class="cls-35" x="60.49" y="0">u</tspan><tspan class="cls-76" x="66.09" y="0">n</tspan><tspan x="71.68" y="0">g </tspan><tspan class="cls-65" x="79.76" y="0">m</tspan><tspan class="cls-68" x="88.56" y="0">i</tspan><tspan x="91.11" y="0">t </tspan></text><text class="cls-39" transform="translate(398.85 177.71)"><tspan class="cls-84">K</tspan><tspan class="cls-50" x="6.52" y="0">n</tspan><tspan class="cls-71" x="12.1" y="0">ö</tspan><tspan class="cls-80" x="17.88" y="0">p</tspan><tspan class="cls-49" x="23.46" y="0">f</tspan><tspan class="cls-68" x="26.84" y="0">e</tspan><tspan x="32.27" y="0">n</tspan></text><text class="cls-39" transform="translate(4.48 206.78)"><tspan class="cls-50">M</tspan><tspan class="cls-51" x="8.79" y="0">a</tspan><tspan class="cls-53" x="14.3" y="0">t</tspan><tspan class="cls-69" x="17.49" y="0">e</tspan><tspan class="cls-51" x="22.91" y="0">r</tspan><tspan x="26.37" y="0">i</tspan><tspan class="cls-47" x="28.79" y="0">a</tspan><tspan x="34.25" y="0">l</tspan></text><text class="cls-39" transform="translate(159.79 206.78)"><tspan class="cls-33">A</tspan><tspan class="cls-67" x="6.67" y="0">l</tspan><tspan class="cls-35" x="9.15" y="0">u</tspan><tspan class="cls-65" x="14.75" y="0">m</tspan><tspan class="cls-67" x="23.55" y="0">i</tspan><tspan class="cls-65" x="26.02" y="0">ni</tspan><tspan class="cls-35" x="34.03" y="0">u</tspan><tspan x="39.63" y="0">m = </tspan><tspan class="cls-86" x="58.84" y="0">1</tspan><tspan class="cls-49" x="63.93" y="0">6</tspan><tspan x="69.46" y="0">x</tspan></text><text class="cls-39" transform="translate(159.79 221.61)"><tspan class="cls-72">K</tspan><tspan class="cls-35" x="6.26" y="0">u</tspan><tspan class="cls-47" x="11.86" y="0">n</tspan><tspan class="cls-87" x="17.4" y="0">s</tspan><tspan class="cls-52" x="22.72" y="0">t</tspan><tspan class="cls-88" x="26.01" y="0">s</tspan><tspan class="cls-89" x="31.33" y="0">t</tspan><tspan class="cls-85" x="34.51" y="0">o</tspan><tspan class="cls-15" x="40.14" y="0">f</tspan><tspan x="43.83" y="0">f = </tspan><tspan class="cls-43" x="57.74" y="0">1</tspan><tspan class="cls-44" x="62.61" y="0">1</tspan><tspan x="67.72" y="0">x</tspan></text><text class="cls-39" transform="translate(398.85 206.78)"><tspan class="cls-54">K</tspan><tspan class="cls-71" x="6.17" y="0">o</tspan><tspan class="cls-90" x="11.95" y="0">p</tspan><tspan class="cls-91" x="17.53" y="0">f</tspan><tspan class="cls-51" x="21.19" y="0">h</tspan><tspan class="cls-71" x="26.77" y="0">ö</tspan><tspan class="cls-47" x="32.56" y="0">r</tspan><tspan class="cls-68" x="35.96" y="0">e</tspan><tspan class="cls-40" x="41.39" y="0">r</tspan><tspan class="cls-51" x="44.89" y="0">m</tspan><tspan class="cls-52" x="53.73" y="0">u</tspan><tspan class="cls-42" x="59.27" y="0">s</tspan><tspan class="cls-74" x="64.46" y="0">c</tspan><tspan class="cls-71" x="69.82" y="0">h</tspan><tspan class="cls-38" x="75.41" y="0">e</tspan><tspan x="80.8" y="0">l </tspan><tspan class="cls-47" x="85.71" y="0">a</tspan><tspan class="cls-65" x="91.17" y="0">u</tspan><tspan x="96.71" y="0">s </tspan></text><text class="cls-39" transform="translate(398.85 218.78)"><tspan class="cls-33">A</tspan><tspan class="cls-67" x="6.67" y="0">l</tspan><tspan class="cls-35" x="9.15" y="0">u</tspan><tspan class="cls-65" x="14.75" y="0">m</tspan><tspan class="cls-67" x="23.55" y="0">i</tspan><tspan class="cls-65" x="26.02" y="0">ni</tspan><tspan class="cls-35" x="34.03" y="0">u</tspan><tspan x="39.63" y="0">m</tspan></text></g></g></svg>