<?xml version="1.0" encoding="UTF-8"?><svg id="Layer_2" xmlns="http://www.w3.org/2000/svg" viewBox="0 0 524.7 232.82"><defs><style>.cls-1{letter-spacing:.03em;}.cls-2{letter-spacing:0em;}.cls-3{letter-spacing:0em;}.cls-4{letter-spacing:0em;}.cls-5{letter-spacing:.05em;}.cls-6{letter-spacing:0em;}.cls-7{letter-spacing:.01em;}.cls-8{letter-spacing:0em;}.cls-9{letter-spacing:.04em;}.cls-10{letter-spacing:.05em;}.cls-11{letter-spacing:.01em;}.cls-12{letter-spacing:.02em;}.cls-13{letter-spacing:.05em;}.cls-14{letter-spacing:.02em;}.cls-15{letter-spacing:.01em;}.cls-16{letter-spacing:.01em;}.cls-17{letter-spacing:0em;}.cls-18{letter-spacing:.05em;}.cls-19{font-family:ProbaPro-SemiBold, 'Proba Pro';font-size:12px;}.cls-19,.cls-20,.cls-21{fill:#1d1d1b;}.cls-22{letter-spacing:-.01em;}.cls-23{letter-spacing:0em;}.cls-24{letter-spacing:.05em;}.cls-25{letter-spacing:0em;}.cls-26{letter-spacing:0em;}.cls-27{letter-spacing:0em;}.cls-28{letter-spacing:.02em;}.cls-29{letter-spacing:0em;}.cls-30{letter-spacing:.04em;}.cls-31{letter-spacing:.02em;}.cls-32{letter-spacing:.01em;}.cls-33{letter-spacing:.04em;}.cls-34{letter-spacing:-.04em;}.cls-35{letter-spacing:0em;}.cls-36{letter-spacing:0em;}.cls-37{letter-spacing:.02em;}.cls-38{letter-spacing:.06em;}.cls-39{letter-spacing:0em;}.cls-40{letter-spacing:.03em;}.cls-41{letter-spacing:.01em;}.cls-42{letter-spacing:.04em;}.cls-20{font-family:Roboto-Regular, Roboto;}.cls-20,.cls-21{font-size:10px;}.cls-43{letter-spacing:.04em;}.cls-44{letter-spacing:0em;}.cls-45{letter-spacing:.01em;}.cls-46{letter-spacing:0em;}.cls-47{fill:none;stroke:#1d1d1b;stroke-miterlimit:10;}.cls-48{letter-spacing:-.04em;}.cls-49{letter-spacing:.06em;}.cls-50{letter-spacing:-.05em;}.cls-51{letter-spacing:.01em;}.cls-52{letter-spacing:.01em;}.cls-53{letter-spacing:.04em;}.cls-54{letter-spacing:.05em;}.cls-55{letter-spacing:0em;}.cls-56{letter-spacing:0em;}.cls-57{letter-spacing:-.05em;}.cls-58{letter-spacing:0em;}.cls-59{letter-spacing:.04em;}.cls-60{letter-spacing:0em;}.cls-61{letter-spacing:.02em;}.cls-62{letter-spacing:0em;}.cls-63{letter-spacing:0em;}.cls-64{letter-spacing:-.04em;}.cls-65{letter-spacing:-.03em;}.cls-66{letter-spacing:-.07em;}.cls-67{letter-spacing:.02em;}.cls-68{letter-spacing:.02em;}.cls-69{letter-spacing:.05em;}.cls-70{letter-spacing:0em;}.cls-71{letter-spacing:.06em;}.cls-72{letter-spacing:0em;}.cls-73{letter-spacing:.04em;}.cls-74{letter-spacing:-.03em;}.cls-75{letter-spacing:0em;}.cls-76{letter-spacing:-.05em;}.cls-77{letter-spacing:.05em;}.cls-78{letter-spacing:0em;}.cls-21{font-family:Roboto-Medium, Roboto;}.cls-79{letter-spacing:.06em;}.cls-80{letter-spacing:0em;}.cls-81{letter-spacing:.04em;}.cls-82{letter-spacing:0em;}.cls-83{letter-spacing:0em;}.cls-84{letter-spacing:-.04em;}.cls-85{letter-spacing:0em;}.cls-86{letter-spacing:0em;}.cls-87{letter-spacing:.03em;}.cls-88{letter-spacing:0em;}.cls-89{letter-spacing:-.04em;}.cls-90{letter-spacing:.01em;}.cls-91{letter-spacing:0em;}.cls-92{letter-spacing:0em;}.cls-93{letter-spacing:0em;}.cls-94{letter-spacing:0em;}.cls-95{letter-spacing:0em;}.cls-96{letter-spacing:.05em;}.cls-97{letter-spacing:.01em;}.cls-98{letter-spacing:.06em;}.cls-99{letter-spacing:-.05em;}.cls-100{letter-spacing:0em;}.cls-101{letter-spacing:.01em;}.cls-102{letter-spacing:0em;}.cls-103{letter-spacing:0em;}.cls-104{letter-spacing:-.01em;}.cls-105{letter-spacing:0em;}.cls-106{letter-spacing:.01em;}.cls-107{letter-spacing:.06em;}.cls-108{letter-spacing:.02em;}.cls-109{letter-spacing:.01em;}.cls-110{letter-spacing:.01em;}.cls-111{letter-spacing:.02em;}</style></defs><g id="Layer_1-2"><line class="cls-47" y1=".5" x2="155.81" y2=".5"/><line class="cls-47" x1=".5" y1="31.4" x2=".5" y2="1"/><line class="cls-47" x1="155.81" y1=".5" x2="293.76" y2=".5"/><line class="cls-47" x1="155.81" y1="31.4" x2="155.81" y2="1"/><line class="cls-47" x1="293.76" y1=".5" x2="394.87" y2=".5"/><line class="cls-47" x1="293.76" y1="31.4" x2="293.76" y2="1"/><line class="cls-47" x1="394.87" y1=".5" x2="524.7" y2=".5"/><line class="cls-47" x1="394.87" y1="31.4" x2="394.87" y2="1"/><line class="cls-47" x1="524.2" y1="31.4" x2="524.2" y2="1"/><line class="cls-47" y1="31.9" x2="155.81" y2="31.9"/><line class="cls-47" x1=".5" y1="64.71" x2=".5" y2="32.4"/><line class="cls-47" x1="155.81" y1="31.9" x2="293.76" y2="31.9"/><line class="cls-47" x1="155.81" y1="64.71" x2="155.81" y2="32.4"/><line class="cls-47" x1="293.76" y1="31.9" x2="394.87" y2="31.9"/><line class="cls-47" x1="293.76" y1="64.71" x2="293.76" y2="32.4"/><line class="cls-47" x1="394.87" y1="31.9" x2="524.7" y2="31.9"/><line class="cls-47" x1="394.87" y1="64.71" x2="394.87" y2="32.4"/><line class="cls-47" x1="524.2" y1="64.71" x2="524.2" y2="32.4"/><line class="cls-47" y1="65.21" x2="155.81" y2="65.21"/><line class="cls-47" x1=".5" y1="107.19" x2=".5" y2="65.71"/><line class="cls-47" x1="155.81" y1="65.21" x2="293.76" y2="65.21"/><line class="cls-47" x1="155.81" y1="107.19" x2="155.81" y2="65.71"/><line class="cls-47" x1="293.76" y1="65.21" x2="394.87" y2="65.21"/><line class="cls-47" x1="293.76" y1="107.19" x2="293.76" y2="65.71"/><line class="cls-47" x1="394.87" y1="65.21" x2="524.7" y2="65.21"/><line class="cls-47" x1="394.87" y1="107.19" x2="394.87" y2="65.71"/><line class="cls-47" x1="524.2" y1="107.19" x2="524.2" y2="65.71"/><line class="cls-47" y1="107.69" x2="155.81" y2="107.69"/><line class="cls-47" x1=".5" y1="149.67" x2=".5" y2="108.19"/><line class="cls-47" x1="155.81" y1="107.69" x2="293.76" y2="107.69"/><line class="cls-47" x1="155.81" y1="149.67" x2="155.81" y2="108.19"/><line class="cls-47" x1="293.76" y1="107.69" x2="394.87" y2="107.69"/><line class="cls-47" x1="293.76" y1="149.67" x2="293.76" y2="108.19"/><line class="cls-47" x1="394.87" y1="107.69" x2="524.7" y2="107.69"/><line class="cls-47" x1="394.87" y1="149.67" x2="394.87" y2="108.19"/><line class="cls-47" x1="524.2" y1="149.67" x2="524.2" y2="108.19"/><line class="cls-47" y1="150.17" x2="155.81" y2="150.17"/><line class="cls-47" x1=".5" y1="190.75" x2=".5" y2="150.67"/><line class="cls-47" x1="155.81" y1="150.17" x2="293.76" y2="150.17"/><line class="cls-47" x1="155.81" y1="190.75" x2="155.81" y2="150.67"/><line class="cls-47" x1="293.76" y1="150.17" x2="394.87" y2="150.17"/><line class="cls-47" x1="293.76" y1="190.75" x2="293.76" y2="150.67"/><line class="cls-47" x1="394.87" y1="150.17" x2="524.7" y2="150.17"/><line class="cls-47" x1="394.87" y1="190.75" x2="394.87" y2="150.67"/><line class="cls-47" x1="524.2" y1="190.75" x2="524.2" y2="150.67"/><line class="cls-47" y1="191.25" x2="155.81" y2="191.25"/><line class="cls-47" x1=".5" y1="231.82" x2=".5" y2="191.74"/><line class="cls-47" x1="155.81" y1="191.25" x2="293.76" y2="191.25"/><line class="cls-47" x1="155.81" y1="231.82" x2="155.81" y2="191.74"/><line class="cls-47" x1="293.76" y1="191.25" x2="394.87" y2="191.25"/><line class="cls-47" x1="293.76" y1="231.82" x2="293.76" y2="191.74"/><line class="cls-47" x1="394.87" y1="191.25" x2="524.7" y2="191.25"/><line class="cls-47" x1="394.87" y1="231.82" x2="394.87" y2="191.74"/><line class="cls-47" x1="524.2" y1="231.82" x2="524.2" y2="191.74"/><line class="cls-47" y1="232.32" x2="155.81" y2="232.32"/><line class="cls-47" x1="155.81" y1="232.32" x2="293.76" y2="232.32"/><line class="cls-47" x1="293.76" y1="232.32" x2="394.87" y2="232.32"/><line class="cls-47" x1="394.87" y1="232.32" x2="524.7" y2="232.32"/><text class="cls-19" transform="translate(19.8 13.45)"><tspan class="cls-54" x="0" y="0">D</tspan><tspan class="cls-73" x="8.98" y="0">ES</tspan><tspan class="cls-54" x="22.45" y="0">I</tspan><tspan class="cls-38" x="25.82" y="0">G</tspan><tspan class="cls-33" x="35.14" y="0">N</tspan><tspan class="cls-81" x="44.11" y="0"> </tspan><tspan class="cls-34" x="47.34" y="0">P</tspan><tspan class="cls-96" x="53.24" y="0">A</tspan><tspan class="cls-107" x="62.93" y="0">R</tspan><tspan class="cls-96" x="70.27" y="0">A</tspan><tspan class="cls-49" x="79.96" y="0">M</tspan><tspan class="cls-53" x="90.27" y="0">E</tspan><tspan class="cls-42" x="96.6" y="0">T</tspan><tspan class="cls-18" x="103.7" y="0">E</tspan><tspan x="110.09" y="0">R</tspan></text><text class="cls-19" transform="translate(177.37 13.45)"><tspan class="cls-42" x="0" y="0">F</tspan><tspan class="cls-18" x="5.96" y="0">EE</tspan><tspan class="cls-54" x="18.73" y="0">D</tspan><tspan class="cls-37" x="27.71" y="0">B</tspan><tspan x="34.62" y="0">A</tspan><tspan class="cls-43" x="43.76" y="0">C</tspan><tspan class="cls-1" x="52.52" y="0">K</tspan><tspan class="cls-33" x="60.25" y="0">S</tspan><tspan class="cls-81" x="67.33" y="0"> </tspan><tspan class="cls-88" x="70.56" y="0">A</tspan><tspan class="cls-33" x="79.81" y="0">U</tspan><tspan class="cls-102" x="88.17" y="0">S </tspan></text><text class="cls-19" transform="translate(188.23 27.85)"><tspan x="0" y="0">D</tspan><tspan class="cls-65" x="8.36" y="0">A</tspan><tspan class="cls-42" x="17.09" y="0">T</tspan><tspan class="cls-18" x="24.19" y="0">E</tspan><tspan class="cls-79" x="30.58" y="0">N</tspan><tspan class="cls-61" x="39.84" y="0">B</tspan><tspan class="cls-10" x="46.75" y="0">A</tspan><tspan class="cls-98" x="56.45" y="0">N</tspan><tspan x="65.7" y="0">K</tspan></text><text class="cls-19" transform="translate(305.79 13.45)"><tspan class="cls-69" x="0" y="0">A</tspan><tspan class="cls-98" x="9.7" y="0">N</tspan><tspan class="cls-79" x="18.95" y="0">M</tspan><tspan class="cls-18" x="29.27" y="0">E</tspan><tspan class="cls-77" x="35.65" y="0">R</tspan><tspan class="cls-40" x="42.84" y="0">K</tspan><tspan class="cls-71" x="50.64" y="0">U</tspan><tspan class="cls-13" x="59.25" y="0">N</tspan><tspan x="68.39" y="0">G</tspan></text><text class="cls-19" transform="translate(431.62 13.45)"><tspan class="cls-24" x="0" y="0">R</tspan><tspan class="cls-96" x="7.18" y="0">E</tspan><tspan class="cls-9" x="13.51" y="0">S</tspan><tspan class="cls-71" x="20.54" y="0">U</tspan><tspan class="cls-64" x="29.16" y="0">L</tspan><tspan class="cls-48" x="34.18" y="0">T</tspan><tspan class="cls-74" x="40.42" y="0">A</tspan><tspan x="49.14" y="0">T</tspan></text><text class="cls-21" transform="translate(4.5 43.4)"><tspan class="cls-101" x="0" y="0">G</tspan><tspan class="cls-97" x="6.96" y="0">ru</tspan><tspan class="cls-62" x="16.25" y="0">n</tspan><tspan class="cls-94" x="21.9" y="0">d</tspan><tspan class="cls-78" x="27.59" y="0">f</tspan><tspan class="cls-16" x="31.09" y="0">or</tspan><tspan x="40.5" y="0">m</tspan></text><text class="cls-20" transform="translate(159.81 46.38)"><tspan x="0" y="0">E</tspan><tspan class="cls-109" x="5.68" y="0">c</tspan><tspan class="cls-32" x="11.04" y="0">k</tspan><tspan class="cls-23" x="16.25" y="0">i</tspan><tspan x="18.71" y="0">g = </tspan><tspan class="cls-66" x="34.76" y="0">1</tspan><tspan class="cls-76" x="39.63" y="0">1</tspan><tspan x="44.74" y="0">x</tspan></text><text class="cls-20" transform="translate(159.81 61.21)"><tspan class="cls-15" x="0" y="0">O</tspan><tspan class="cls-36" x="7.02" y="0">v</tspan><tspan class="cls-92" x="11.8" y="0">a</tspan><tspan x="17.26" y="0">l = </tspan><tspan class="cls-50" x="30.12" y="0">1</tspan><tspan class="cls-95" x="35.21" y="0">6</tspan><tspan x="40.73" y="0">x</tspan></text><text class="cls-20" transform="translate(398.87 46.38)"><tspan class="cls-32" x="0" y="0">O</tspan><tspan class="cls-6" x="7.01" y="0">v</tspan><tspan class="cls-86" x="11.8" y="0">a</tspan><tspan class="cls-80" x="17.26" y="0">l</tspan><tspan x="19.75" y="0">e </tspan><tspan class="cls-90" x="27.52" y="0">G</tspan><tspan class="cls-109" x="34.44" y="0">r</tspan><tspan class="cls-39" x="37.94" y="0">u</tspan><tspan class="cls-100" x="43.55" y="0">n</tspan><tspan class="cls-58" x="49.13" y="0">d</tspan><tspan class="cls-35" x="54.8" y="0">f</tspan><tspan class="cls-27" x="58.2" y="0">o</tspan><tspan class="cls-109" x="63.97" y="0">r</tspan><tspan x="67.47" y="0">m</tspan></text><text class="cls-21" transform="translate(4.5 76.71)"><tspan class="cls-104" x="0" y="0">K</tspan><tspan class="cls-8" x="6.2" y="0">o</tspan><tspan x="11.99" y="0">m</tspan><tspan class="cls-55" x="20.69" y="0">f</tspan><tspan class="cls-16" x="24.18" y="0">o</tspan><tspan class="cls-59" x="29.98" y="0">r</tspan><tspan x="33.86" y="0">t</tspan></text><text class="cls-20" transform="translate(159.81 79.69)"><tspan class="cls-5" x="0" y="0">0</tspan><tspan class="cls-14" x="6.12" y="0">-</tspan><tspan class="cls-67" x="9.08" y="0">5</tspan><tspan x="14.88" y="0">0 = </tspan><tspan class="cls-62" x="30.93" y="0">9</tspan><tspan x="36.64" y="0">x</tspan></text><text class="cls-20" transform="translate(159.81 94.52)"><tspan class="cls-93" x="0" y="0">5</tspan><tspan x="5.58" y="0">1 - </tspan><tspan class="cls-89" x="18.9" y="0">1</tspan><tspan class="cls-31" x="24.09" y="0">0</tspan><tspan x="29.93" y="0">0 = </tspan><tspan class="cls-57" x="45.99" y="0">1</tspan><tspan class="cls-97" x="51.11" y="0">8</tspan><tspan x="56.84" y="0">x</tspan></text><text class="cls-20" transform="translate(297.76 79.69)"><tspan x="0" y="0">0 = </tspan><tspan class="cls-94" x="16.05" y="0">Mi</tspan><tspan class="cls-58" x="27.31" y="0">n</tspan><tspan class="cls-80" x="32.86" y="0">i</tspan><tspan class="cls-100" x="35.35" y="0">m</tspan><tspan class="cls-62" x="44.18" y="0">u</tspan><tspan x="49.78" y="0">m</tspan></text><text class="cls-20" transform="translate(297.76 94.52)"><tspan class="cls-84" x="0" y="0">1</tspan><tspan class="cls-111" x="5.21" y="0">0</tspan><tspan x="11.05" y="0">0 = </tspan><tspan class="cls-94" x="27.11" y="0">M</tspan><tspan class="cls-11" x="35.89" y="0">a</tspan><tspan class="cls-23" x="41.47" y="0">x</tspan><tspan class="cls-80" x="46.47" y="0">i</tspan><tspan class="cls-27" x="48.96" y="0">m</tspan><tspan class="cls-62" x="57.79" y="0">u</tspan><tspan x="63.4" y="0">m</tspan></text><text class="cls-20" transform="translate(398.86 79.69)"><tspan class="cls-62" x="0" y="0">B</tspan><tspan class="cls-94" x="6.32" y="0">es</tspan><tspan class="cls-86" x="16.87" y="0">s</tspan><tspan class="cls-51" x="22.05" y="0">e</tspan><tspan class="cls-91" x="27.47" y="0">r</tspan><tspan class="cls-51" x="30.88" y="0">e</tspan><tspan x="36.31" y="0">r </tspan><tspan class="cls-22" x="42.17" y="0">K</tspan><tspan class="cls-44" x="48.32" y="0">o</tspan><tspan class="cls-60" x="54.11" y="0">m</tspan><tspan class="cls-35" x="62.86" y="0">f</tspan><tspan class="cls-44" x="66.25" y="0">o</tspan><tspan class="cls-30" x="72.04" y="0">r</tspan><tspan x="75.84" y="0">t </tspan><tspan class="cls-86" x="81.58" y="0">m</tspan><tspan class="cls-109" x="90.37" y="0">i</tspan><tspan x="92.91" y="0">t </tspan></text><text class="cls-20" transform="translate(398.86 91.69)"><tspan class="cls-27" x="0" y="0">h</tspan><tspan class="cls-44" x="5.58" y="0">ö</tspan><tspan class="cls-86" x="11.36" y="0">r</tspan><tspan class="cls-51" x="14.76" y="0">e</tspan><tspan class="cls-2" x="20.19" y="0">r</tspan><tspan class="cls-41" x="23.59" y="0">e</tspan><tspan x="29.02" y="0">m </tspan><tspan class="cls-100" x="40.26" y="0">P</tspan><tspan class="cls-91" x="46.64" y="0">r</tspan><tspan class="cls-62" x="50.05" y="0">e</tspan><tspan class="cls-2" x="55.43" y="0">i</tspan><tspan x="57.87" y="0">s </tspan><tspan class="cls-39" x="65.5" y="0">u</tspan><tspan class="cls-100" x="71.11" y="0">n</tspan><tspan x="76.69" y="0">d </tspan></text><text class="cls-20" transform="translate(398.86 103.69)"><tspan class="cls-46" x="0" y="0">M</tspan><tspan class="cls-27" x="8.79" y="0">a</tspan><tspan class="cls-35" x="14.3" y="0">t</tspan><tspan class="cls-51" x="17.49" y="0">e</tspan><tspan class="cls-27" x="22.91" y="0">r</tspan><tspan x="26.37" y="0">i</tspan><tspan class="cls-86" x="28.79" y="0">a</tspan><tspan class="cls-27" x="34.25" y="0">l</tspan><tspan class="cls-95" x="36.75" y="0">v</tspan><tspan class="cls-51" x="41.5" y="0">e</tspan><tspan class="cls-110" x="46.93" y="0">r</tspan><tspan class="cls-3" x="50.43" y="0">b</tspan><tspan class="cls-44" x="56.14" y="0">r</tspan><tspan class="cls-91" x="59.6" y="0">a</tspan><tspan class="cls-62" x="65.06" y="0">u</tspan><tspan class="cls-109" x="70.66" y="0">c</tspan><tspan x="76.02" y="0">h</tspan></text><text class="cls-21" transform="translate(4.49 119.19)"><tspan x="0" y="0">A</tspan><tspan class="cls-97" x="6.66" y="0">u</tspan><tspan class="cls-70" x="12.32" y="0">d</tspan><tspan class="cls-23" x="18.03" y="0">i</tspan><tspan class="cls-16" x="20.62" y="0">o</tspan><tspan class="cls-44" x="26.41" y="0">q</tspan><tspan class="cls-29" x="32.17" y="0">u</tspan><tspan class="cls-23" x="37.8" y="0">al</tspan><tspan class="cls-97" x="45.84" y="0">i</tspan><tspan class="cls-8" x="48.51" y="0">t</tspan><tspan class="cls-29" x="51.92" y="0">ä</tspan><tspan x="57.4" y="0">t</tspan></text><text class="cls-20" transform="translate(159.8 122.17)"><tspan class="cls-5" x="0" y="0">0</tspan><tspan class="cls-14" x="6.12" y="0">-</tspan><tspan class="cls-67" x="9.08" y="0">5</tspan><tspan x="14.88" y="0">0 = </tspan><tspan class="cls-103" x="30.93" y="0">7</tspan><tspan x="36.52" y="0">x</tspan></text><text class="cls-20" transform="translate(159.8 137)"><tspan class="cls-93" x="0" y="0">5</tspan><tspan x="5.58" y="0">1 - </tspan><tspan class="cls-89" x="18.9" y="0">1</tspan><tspan class="cls-31" x="24.09" y="0">0</tspan><tspan x="29.93" y="0">0 = 2</tspan><tspan class="cls-68" x="51.6" y="0">0</tspan><tspan x="57.37" y="0">x</tspan></text><text class="cls-20" transform="translate(297.75 122.17)"><tspan x="0" y="0">0 = </tspan><tspan class="cls-94" x="16.05" y="0">Mi</tspan><tspan class="cls-58" x="27.31" y="0">n</tspan><tspan class="cls-80" x="32.86" y="0">i</tspan><tspan class="cls-100" x="35.35" y="0">m</tspan><tspan class="cls-62" x="44.18" y="0">u</tspan><tspan x="49.78" y="0">m</tspan></text><text class="cls-20" transform="translate(297.75 137)"><tspan class="cls-84" x="0" y="0">1</tspan><tspan class="cls-111" x="5.21" y="0">0</tspan><tspan x="11.05" y="0">0 = </tspan><tspan class="cls-94" x="27.11" y="0">M</tspan><tspan class="cls-11" x="35.89" y="0">a</tspan><tspan class="cls-23" x="41.47" y="0">x</tspan><tspan class="cls-80" x="46.47" y="0">i</tspan><tspan class="cls-27" x="48.96" y="0">m</tspan><tspan class="cls-62" x="57.79" y="0">u</tspan><tspan x="63.4" y="0">m</tspan></text><text class="cls-20" transform="translate(398.85 122.17)"><tspan class="cls-62" x="0" y="0">B</tspan><tspan class="cls-94" x="6.32" y="0">es</tspan><tspan class="cls-86" x="16.87" y="0">s</tspan><tspan class="cls-51" x="22.05" y="0">e</tspan><tspan class="cls-2" x="27.47" y="0">r</tspan><tspan class="cls-52" x="30.87" y="0">e</tspan><tspan x="36.3" y="0">r A</tspan><tspan class="cls-85" x="48.68" y="0">u</tspan><tspan class="cls-72" x="54.27" y="0">d</tspan><tspan class="cls-75" x="59.96" y="0">i</tspan><tspan class="cls-39" x="62.42" y="0">o</tspan><tspan class="cls-94" x="68.21" y="0">qu</tspan><tspan class="cls-86" x="79.51" y="0">a</tspan><tspan class="cls-83" x="84.97" y="0">l</tspan><tspan class="cls-51" x="87.4" y="0">i</tspan><tspan class="cls-23" x="89.96" y="0">t</tspan><tspan class="cls-100" x="93.27" y="0">ä</tspan><tspan x="98.78" y="0">t </tspan></text><text class="cls-20" transform="translate(398.85 134.17)"><tspan class="cls-58" x="0" y="0">m</tspan><tspan class="cls-51" x="8.79" y="0">i</tspan><tspan x="11.35" y="0">t </tspan><tspan class="cls-27" x="17.09" y="0">h</tspan><tspan class="cls-85" x="22.67" y="0">ö</tspan><tspan class="cls-83" x="28.45" y="0">r</tspan><tspan class="cls-51" x="31.85" y="0">e</tspan><tspan class="cls-86" x="37.28" y="0">r</tspan><tspan class="cls-41" x="40.68" y="0">e</tspan><tspan x="46.12" y="0">m </tspan><tspan class="cls-100" x="57.36" y="0">P</tspan><tspan class="cls-91" x="63.74" y="0">r</tspan><tspan class="cls-62" x="67.14" y="0">e</tspan><tspan class="cls-2" x="72.53" y="0">i</tspan><tspan x="74.96" y="0">s </tspan><tspan class="cls-44" x="82.6" y="0">u</tspan><tspan class="cls-27" x="88.19" y="0">n</tspan><tspan x="93.78" y="0">d </tspan></text><text class="cls-20" transform="translate(398.85 146.17)"><tspan class="cls-46" x="0" y="0">M</tspan><tspan class="cls-27" x="8.79" y="0">a</tspan><tspan class="cls-35" x="14.3" y="0">t</tspan><tspan class="cls-51" x="17.49" y="0">e</tspan><tspan class="cls-27" x="22.91" y="0">r</tspan><tspan x="26.37" y="0">i</tspan><tspan class="cls-86" x="28.79" y="0">a</tspan><tspan class="cls-27" x="34.25" y="0">l</tspan><tspan class="cls-95" x="36.75" y="0">v</tspan><tspan class="cls-51" x="41.5" y="0">e</tspan><tspan class="cls-110" x="46.93" y="0">r</tspan><tspan class="cls-3" x="50.43" y="0">b</tspan><tspan class="cls-44" x="56.14" y="0">r</tspan><tspan class="cls-91" x="59.6" y="0">a</tspan><tspan class="cls-62" x="65.06" y="0">u</tspan><tspan class="cls-109" x="70.66" y="0">c</tspan><tspan x="76.02" y="0">h</tspan></text><text class="cls-21" transform="translate(4.48 161.67)"><tspan class="cls-109" x="0" y="0">M</tspan><tspan class="cls-29" x="8.88" y="0">u</tspan><tspan class="cls-26" x="14.5" y="0">s</tspan><tspan class="cls-29" x="19.71" y="0">i</tspan><tspan x="22.34" y="0">k </tspan><tspan class="cls-29" x="30.05" y="0">B</tspan><tspan class="cls-15" x="36.42" y="0">e</tspan><tspan class="cls-70" x="41.93" y="0">d</tspan><tspan class="cls-17" x="47.64" y="0">i</tspan><tspan class="cls-15" x="50.22" y="0">e</tspan><tspan class="cls-62" x="55.73" y="0">n</tspan><tspan class="cls-110" x="61.38" y="0">u</tspan><tspan class="cls-56" x="67.04" y="0">n</tspan><tspan x="72.69" y="0">g</tspan></text><text class="cls-20" transform="translate(159.79 164.65)"><tspan class="cls-66" x="0" y="0">T</tspan><tspan class="cls-29" x="5.22" y="0">o</tspan><tspan class="cls-8" x="10.99" y="0">u</tspan><tspan class="cls-7" x="16.59" y="0">c</tspan><tspan x="21.95" y="0">h = </tspan><tspan class="cls-8" x="37.89" y="0">3</tspan><tspan x="43.6" y="0">x</tspan></text><text class="cls-20" transform="translate(159.79 179.48)"><tspan class="cls-87" x="0" y="0">K</tspan><tspan class="cls-70" x="6.52" y="0">n</tspan><tspan class="cls-44" x="12.1" y="0">ö</tspan><tspan class="cls-103" x="17.88" y="0">p</tspan><tspan class="cls-35" x="23.46" y="0">f</tspan><tspan x="26.85" y="0">e = 2</tspan><tspan class="cls-82" x="48.2" y="0">4</tspan><tspan x="53.75" y="0">x</tspan></text><text class="cls-20" transform="translate(398.85 164.65)"><tspan class="cls-3" x="0" y="0">M</tspan><tspan class="cls-23" x="8.83" y="0">u</tspan><tspan class="cls-91" x="14.38" y="0">s</tspan><tspan class="cls-94" x="19.56" y="0">i</tspan><tspan x="22.04" y="0">k </tspan><tspan class="cls-62" x="29.58" y="0">B</tspan><tspan class="cls-41" x="35.9" y="0">e</tspan><tspan class="cls-23" x="41.33" y="0">d</tspan><tspan class="cls-75" x="47.01" y="0">i</tspan><tspan class="cls-51" x="49.47" y="0">e</tspan><tspan class="cls-27" x="54.9" y="0">n</tspan><tspan class="cls-62" x="60.49" y="0">u</tspan><tspan class="cls-27" x="66.09" y="0">n</tspan><tspan x="71.68" y="0">g </tspan><tspan class="cls-58" x="79.76" y="0">m</tspan><tspan class="cls-51" x="88.56" y="0">i</tspan><tspan x="91.11" y="0">t </tspan></text><text class="cls-20" transform="translate(398.85 176.65)"><tspan class="cls-87" x="0" y="0">K</tspan><tspan class="cls-46" x="6.52" y="0">n</tspan><tspan class="cls-44" x="12.1" y="0">ö</tspan><tspan class="cls-63" x="17.88" y="0">p</tspan><tspan class="cls-25" x="23.46" y="0">f</tspan><tspan class="cls-52" x="26.84" y="0">e</tspan><tspan x="32.27" y="0">n</tspan></text><text class="cls-20" transform="translate(4.48 205.72)"><tspan class="cls-70" x="0" y="0">M</tspan><tspan class="cls-29" x="8.79" y="0">a</tspan><tspan class="cls-35" x="14.3" y="0">t</tspan><tspan class="cls-45" x="17.49" y="0">e</tspan><tspan class="cls-29" x="22.91" y="0">r</tspan><tspan x="26.37" y="0">i</tspan><tspan class="cls-92" x="28.79" y="0">a</tspan><tspan x="34.25" y="0">l</tspan></text><text class="cls-20" transform="translate(159.79 205.72)"><tspan class="cls-101" x="0" y="0">A</tspan><tspan class="cls-26" x="6.67" y="0">l</tspan><tspan class="cls-62" x="9.15" y="0">u</tspan><tspan class="cls-17" x="14.75" y="0">m</tspan><tspan class="cls-26" x="23.55" y="0">i</tspan><tspan class="cls-17" x="26.02" y="0">ni</tspan><tspan class="cls-62" x="34.03" y="0">u</tspan><tspan x="39.63" y="0">m = </tspan><tspan class="cls-99" x="58.84" y="0">1</tspan><tspan class="cls-95" x="63.93" y="0">6</tspan><tspan x="69.46" y="0">x</tspan></text><text class="cls-20" transform="translate(159.79 220.55)"><tspan class="cls-60" x="0" y="0">K</tspan><tspan class="cls-62" x="6.26" y="0">u</tspan><tspan class="cls-92" x="11.86" y="0">n</tspan><tspan class="cls-28" x="17.4" y="0">s</tspan><tspan class="cls-58" x="22.72" y="0">t</tspan><tspan class="cls-12" x="26.01" y="0">s</tspan><tspan class="cls-4" x="31.33" y="0">t</tspan><tspan class="cls-82" x="34.51" y="0">o</tspan><tspan class="cls-37" x="40.14" y="0">f</tspan><tspan x="43.83" y="0">f = </tspan><tspan class="cls-66" x="57.74" y="0">1</tspan><tspan class="cls-76" x="62.61" y="0">1</tspan><tspan x="67.72" y="0">x</tspan></text><text class="cls-20" transform="translate(398.85 205.72)"><tspan class="cls-105" x="0" y="0">K</tspan><tspan class="cls-44" x="6.17" y="0">o</tspan><tspan class="cls-103" x="11.95" y="0">p</tspan><tspan class="cls-108" x="17.53" y="0">f</tspan><tspan class="cls-27" x="21.19" y="0">h</tspan><tspan class="cls-44" x="26.77" y="0">ö</tspan><tspan class="cls-86" x="32.56" y="0">r</tspan><tspan class="cls-52" x="35.96" y="0">e</tspan><tspan class="cls-106" x="41.39" y="0">r</tspan><tspan class="cls-27" x="44.89" y="0">m</tspan><tspan class="cls-58" x="53.73" y="0">u</tspan><tspan class="cls-23" x="59.27" y="0">s</tspan><tspan class="cls-109" x="64.46" y="0">c</tspan><tspan class="cls-44" x="69.82" y="0">h</tspan><tspan class="cls-3" x="75.41" y="0">e</tspan><tspan x="80.8" y="0">l </tspan><tspan class="cls-86" x="85.71" y="0">a</tspan><tspan class="cls-58" x="91.17" y="0">u</tspan><tspan x="96.71" y="0">s </tspan></text><text class="cls-20" transform="translate(398.85 217.72)"><tspan class="cls-68" x="0" y="0">A</tspan><tspan class="cls-94" x="6.67" y="0">l</tspan><tspan class="cls-62" x="9.15" y="0">u</tspan><tspan class="cls-58" x="14.75" y="0">m</tspan><tspan class="cls-94" x="23.55" y="0">i</tspan><tspan class="cls-58" x="26.02" y="0">ni</tspan><tspan class="cls-62" x="34.03" y="0">u</tspan><tspan x="39.63" y="0">m</tspan></text></g></svg>