<svg xmlns="http://www.w3.org/2000/svg" viewBox="0 0 375.98 375.98"><defs><style>.cls-1{fill:#161616;}.cls-2{fill:#fff;}.cls-3{fill:#d1cdb6;}</style></defs><g id="Layer_2" data-name="Layer 2"><g id="Layer_1-2" data-name="Layer 1"><circle class="cls-1" cx="187.99" cy="187.99" r="187.99"/><path class="cls-2" d="M264.21,262.42A104.89,104.89,0,0,1,255,271.3a44.59,44.59,0,0,1-4.21,3.28L238.3,260.23l.94-.82a92.09,92.09,0,0,0,11.55-12.57Z"/><path class="cls-2" d="M235.58,260.07l2.21-1.94a90.58,90.58,0,0,0,11.29-12.29l1.6-2.11,16.12,18.7-1,1.09a105.73,105.73,0,0,1-9.38,9.05,47,47,0,0,1-4.4,3.43l-1.64,1.11Z"/><path class="cls-2" d="M269.07,119.38v65.05a45.21,45.21,0,0,1,0,7.11v65c12.17-15.17,19.19-33.07,21.38-53.57V173C288.26,152.46,281.24,134.56,269.07,119.38ZM85.53,302.78h0Z"/><path class="cls-2" d="M104.86,304.58v-20h55.43c31.73,0,57.49-8.6,76.57-25.56l1.66-1.48,15,17.3L252.19,276c-23.91,19.27-54,28.63-91.9,28.63Z"/><path class="cls-2" d="M250.8,274.62c-23.41,18.86-53.37,28.16-90.51,28.16H106.91v-16.4h53.38c32,0,58.37-8.61,78-26.1Z"/><path class="cls-2" d="M267,184.46c-.61-26.94-10.44-49.29-29.23-66.43-19.42-17.67-45.49-26.63-77.49-26.63H114l-17.33-20h63.6c39.44,0,71.8,10.75,96.18,31.95a110.67,110.67,0,0,1,14.29,15l.36.46v65.6Z"/><path class="cls-2" d="M269.07,119.38v65.05c-.63-27.87-10.78-50.29-29.81-67.64-19.82-18-46.51-27.19-79-27.19H115L100.83,73.2h59.46c39.33,0,70.69,10.52,94.73,31.43A109.1,109.1,0,0,1,269.07,119.38Z"/><polyline class="cls-3" points="250.41 277.12 267.01 262.7 250.68 243.73 233.38 257.54"/><path class="cls-3" d="M274,304.58l-26-30.29,1.6-1.09a40.72,40.72,0,0,0,4-3.13,102.52,102.52,0,0,0,9-8.72l1.65-1.84L267,262.7V71.4H292.5V304.58Zm-37.28-43.21-3.3-3.83L103.81,107.29l.47-19.49h11.78l136.4,158,.78,1.05-.73,1a92.51,92.51,0,0,1-11.77,12.83L238.12,263Z"/><path class="cls-3" d="M250.78,246.85,115,89.6h-8.75l-.41,17.1.41.48,132,153.1h0l.92-.81a90.87,90.87,0,0,0,11.54-12.58ZM269.07,73.2V268.06l-4.84-5.6a103.42,103.42,0,0,1-9.21,8.88,41.6,41.6,0,0,1-4.22,3.28L275,302.78h15.46V73.2ZM250.78,246.85,115,89.6h-8.75v17.58l132,153.1h0l.92-.81a90.87,90.87,0,0,0,11.54-12.58Z"/><polygon class="cls-2" points="83.48 304.58 83.48 71.4 101.85 71.4 119.18 91.4 108.35 91.4 108.35 284.58 108.97 284.58 108.97 304.58 83.48 304.58"/><polygon class="cls-2" points="106.29 286.38 106.91 286.38 106.91 302.78 85.53 302.78 85.53 73.2 100.83 73.2 115.04 89.6 106.29 89.6 106.29 286.38"/></g></g></svg>