<?xml version="1.0" encoding="UTF-8"?><svg id="Layer_2" xmlns="http://www.w3.org/2000/svg" viewBox="0 0 72.78 72.78"><defs><style>.cls-1{fill:#333;}.cls-2{fill:#e94546;}.cls-3{fill:#4694d0;}</style></defs><g id="Layer_1-2"><circle class="cls-1" cx="36.39" cy="36.39" r="36.39"/><g><path class="cls-2" d="M50.59,10.79V46.22l-.87-1.11-8.06-10.3v3.11c-.03,4.04-.73,7.39-2.12,10.04l5.25,6.71,5.73,7.32,.07-.05v.02h9.78V10.79h-9.78Z"/><g><path class="cls-3" d="M37.85,50.48c-2.5,2.92-6.08,4.38-10.74,4.38h-5.8V24.68L12.41,13.32V61.96h14.74c4.61,0,8.71-.99,12.28-2.99,2.07-1.15,3.87-2.58,5.36-4.3l-5.25-6.71c-.48,.92-1.04,1.76-1.69,2.52Z"/><path class="cls-3" d="M47.71,22.38c-1.92-3.71-4.63-6.56-8.14-8.58-3.5-2.02-7.52-3.02-12.04-3.02h-4.69l5.63,7.2c4.14,.18,7.33,1.63,9.57,4.36,2.38,2.88,3.58,7.04,3.62,12.47l8.06,10.3c.58-2.3,.87-4.78,.87-7.44v-2.57c0-4.78-.96-9.02-2.88-12.72Z"/></g></g></g></svg>