<?xml version="1.0" encoding="UTF-8"?><svg id="Layer_2" xmlns="http://www.w3.org/2000/svg" xmlns:xlink="http://www.w3.org/1999/xlink" viewBox="0 0 1605.44 1502.68"><defs><style>.cls-1{letter-spacing:.18em;}.cls-1,.cls-2{font-size:27.89px;}.cls-1,.cls-2,.cls-3,.cls-4,.cls-5,.cls-6{fill:#1d1d1b;}.cls-1,.cls-2,.cls-6{font-family:ProbaPro-SemiBold, 'Proba Pro';}.cls-7{letter-spacing:-.02em;}.cls-8{letter-spacing:.17em;}.cls-9{letter-spacing:0em;}.cls-10{letter-spacing:-.04em;}.cls-11{letter-spacing:.19em;}.cls-3{font-size:37.18px;}.cls-3,.cls-12{font-family:ProbaPro-Regular, 'Proba Pro';}.cls-13,.cls-14,.cls-15{stroke:#363938;}.cls-13,.cls-14,.cls-15,.cls-16,.cls-17,.cls-18{stroke-linecap:round;stroke-linejoin:round;}.cls-13,.cls-14,.cls-15,.cls-16,.cls-17,.cls-18,.cls-19{fill:none;}.cls-13,.cls-14,.cls-15,.cls-18{stroke-width:2px;}.cls-20{letter-spacing:.18em;}.cls-21{letter-spacing:.15em;}.cls-14{stroke-dasharray:0 0 8.14 8.14;}.cls-22{clip-path:url(#clippath-2);}.cls-12{fill:#353532;font-size:28px;}.cls-23{letter-spacing:-.03em;}.cls-24{letter-spacing:.17em;}.cls-25{letter-spacing:-.01em;}.cls-15{stroke-dasharray:0 0 8.36 8.36;}.cls-26{fill:#404042;}.cls-27{fill:#363938;}.cls-28{letter-spacing:.17em;}.cls-29{letter-spacing:-.03em;}.cls-30{letter-spacing:.15em;}.cls-31{letter-spacing:-.01em;}.cls-32{letter-spacing:.17em;}.cls-33{clip-path:url(#clippath-1);}.cls-34{clip-path:url(#clippath-4);}.cls-35{letter-spacing:-.04em;}.cls-16{stroke-width:5px;}.cls-16,.cls-18{stroke:#404042;}.cls-36{letter-spacing:.16em;}.cls-37{letter-spacing:.17em;}.cls-38{fill:#2b2b2b;}.cls-39{letter-spacing:.19em;}.cls-17{stroke:#000;stroke-width:3px;}.cls-40{letter-spacing:-.01em;}.cls-41{letter-spacing:.15em;}.cls-42{clip-path:url(#clippath);}.cls-43{letter-spacing:0em;}.cls-44{letter-spacing:.17em;}.cls-45{letter-spacing:0em;}.cls-46{clip-path:url(#clippath-3);}.cls-47{letter-spacing:-.03em;}.cls-48{letter-spacing:.15em;}.cls-49{letter-spacing:-.03em;}.cls-50{letter-spacing:-.02em;}.cls-51{letter-spacing:.18em;}.cls-52{letter-spacing:.17em;}.cls-53{letter-spacing:0em;}.cls-54{letter-spacing:-.02em;}.cls-55{letter-spacing:.09em;}.cls-56{fill:#1a1a1a;}.cls-4{font-size:111.54px;}.cls-4,.cls-5{font-family:PlayfairDisplay-Italic, 'Playfair Display';font-variation-settings:'wght' 400;}.cls-57{letter-spacing:.19em;}.cls-58{letter-spacing:-.01em;}.cls-59{fill:#ffa3ac;}.cls-60{letter-spacing:.17em;}.cls-61{letter-spacing:-.03em;}.cls-62{letter-spacing:.17em;}.cls-5{font-size:65.03px;}.cls-6{font-size:29.12px;letter-spacing:.17em;}.cls-63{letter-spacing:.15em;}</style><clipPath id="clippath"><path class="cls-19" d="M273.46,465.7c0,13.1,10.62,23.72,23.71,23.72s23.71-10.62,23.71-23.72-10.62-23.72-23.71-23.72-23.71,10.62-23.71,23.72"/></clipPath><clipPath id="clippath-1"><path class="cls-19" d="M301.49,1032.44c0,13.09,10.62,23.71,23.72,23.71s23.71-10.62,23.71-23.71-10.62-23.72-23.71-23.72-23.72,10.62-23.72,23.72"/></clipPath><clipPath id="clippath-2"><path class="cls-19" d="M881.28,1080.51c0,13.09,10.62,23.71,23.72,23.71s23.72-10.62,23.72-23.71-10.62-23.72-23.72-23.72-23.72,10.62-23.72,23.72"/></clipPath><clipPath id="clippath-3"><path class="cls-19" d="M1269.35,462.76c0,13.1,10.62,23.72,23.71,23.72s23.71-10.62,23.71-23.72-10.62-23.71-23.71-23.71-23.71,10.62-23.71,23.71"/></clipPath><clipPath id="clippath-4"><path class="cls-19" d="M809.25,24.5c0,13.1,10.62,23.72,23.71,23.72s23.72-10.62,23.72-23.72-10.62-23.71-23.72-23.71-23.71,10.62-23.71,23.71"/></clipPath></defs><g id="Layer_1-2"><path class="cls-26" d="M241.64,184.15h11.22c0-37.18-30.14-67.31-67.31-67.31s-67.31,30.14-67.31,67.31h11.22c0-30.93,25.16-56.09,56.09-56.09s56.09,25.16,56.09,56.09"/><path class="cls-26" d="M185.54,38.09c15.85,0,28.75,12.9,28.75,28.75s-12.9,28.75-28.75,28.75-28.75-12.9-28.75-28.75,12.9-28.75,28.75-28.75m0,68.01c21.69,0,39.26-17.58,39.26-39.26s-17.58-39.27-39.26-39.27-39.26,17.58-39.26,39.27,17.58,39.26,39.26,39.26"/><path class="cls-16" d="M1507.49,62.93l.04,85.4-83.19,60.05-.04-85.06-84.06-60.55,.04,85.47,83.72,60.31m-83.94-145.65L1423.73,2.5l83.72,60.31-83.66,60.39"/><line class="cls-18" x1="1424.34" y1="352.36" x2="1424.26" y2="462.6"/><polygon class="cls-26" points="1424.36 330.9 1412.25 364.11 1436.42 364.13 1424.36 330.9"/><line class="cls-18" x1="185.51" y1="436.09" x2="185.93" y2="293.76"/><polygon class="cls-26" points="185.44 457.54 197.63 424.36 173.45 424.28 185.44 457.54"/><line class="cls-18" x1="185.51" y1="980.37" x2="185.93" y2="842.07"/><polygon class="cls-26" points="185.44 1001.83 197.63 968.64 173.45 968.57 185.44 1001.83"/><line class="cls-18" x1="355.55" y1="147.16" x2="1258.48" y2="147.16"/><polygon class="cls-26" points="334.1 147.16 367.32 159.25 367.32 135.07 334.1 147.16"/><text class="cls-3" transform="translate(1283.63 255.24)"><tspan x="0" y="0">Designvarianten + </tspan><tspan x="89.03" y="44.62">Fintess</tspan></text><text class="cls-3" transform="translate(99.35 255.24)"><tspan x="0" y="0">D</tspan><tspan class="cls-25" x="25.73" y="0">e</tspan><tspan x="44.25" y="0">signer:in</tspan></text><text class="cls-3" transform="translate(1225.57 747)"><tspan x="0" y="0">Gene</tspan><tspan class="cls-23" x="84.47" y="0">r</tspan><tspan class="cls-7" x="96.04" y="0">a</tspan><tspan x="112.17" y="0">ti</tspan><tspan class="cls-29" x="132.21" y="0">v</tspan><tspan class="cls-43" x="150.77" y="0">er A</tspan><tspan class="cls-45" x="218.88" y="0">l</tspan><tspan class="cls-49" x="227.73" y="0">g</tspan><tspan x="245.32" y="0">orith</tspan><tspan class="cls-31" x="318.27" y="0">m</tspan><tspan class="cls-45" x="346.19" y="0">u</tspan><tspan class="cls-53" x="365.6" y="0">s</tspan></text><text class="cls-3" transform="translate(71.95 1338.71)"><tspan class="cls-54" x="0" y="0">P</tspan><tspan x="18.4" y="0">a</tspan><tspan class="cls-49" x="35.25" y="0">r</tspan><tspan x="46.81" y="0">am</tspan><tspan class="cls-50" x="91.95" y="0">e</tspan><tspan x="110.13" y="0">trisch</tspan><tspan class="cls-25" x="194.49" y="0">e</tspan><tspan x="213.01" y="0">s </tspan></text><text class="cls-3" transform="translate(95.44 1383.33)"><tspan x="0" y="0">Basismodell</tspan></text><text class="cls-3" transform="translate(87.56 747)"><tspan x="0" y="0">D</tspan><tspan class="cls-25" x="25.73" y="0">e</tspan><tspan x="44.25" y="0">signzie</tspan><tspan class="cls-40" x="149.47" y="0">l</tspan><tspan class="cls-10" x="158.09" y="0">e</tspan><tspan x="175.49" y="0">/</tspan></text><text class="cls-3" transform="translate(0 791.62)"><tspan x="0" y="0">D</tspan><tspan class="cls-9" x="25.73" y="0">e</tspan><tspan x="44.28" y="0">sign Einsch</tspan><tspan class="cls-35" x="211.07" y="0">r</tspan><tspan x="222.6" y="0">änkun</tspan><tspan class="cls-61" x="315.25" y="0">g</tspan><tspan x="332.8" y="0">en</tspan></text><path class="cls-56" d="M1418.3,567.97c9.5,0,17.24,7.52,17.24,16.76s-7.74,16.76-17.24,16.76-17.25-7.52-17.25-16.76,7.74-16.76,17.25-16.76m-20.42,16.76c0,10.93,9.16,19.84,20.42,19.84s20.41-8.9,20.41-19.84-9.15-19.83-20.41-19.83-20.42,8.9-20.42,19.83"/><path class="cls-56" d="M1343.26,573.47c-1.09-.5-2.7-.36-3.54,.33-3.87,3.18-5.92,6.96-5.92,10.93s2.2,8.04,6.37,11.3c.5,.39,1.25,.59,2,.59,.55,0,1.09-.11,1.55-.33,1.11-.52,1.3-1.48,.44-2.16-3.47-2.71-5.3-5.97-5.3-9.42s1.7-6.45,4.93-9.1c.83-.68,.59-1.65-.53-2.15"/><path class="cls-56" d="M1333.07,573.47c-1.1-.5-2.7-.36-3.54,.33-3.87,3.18-5.92,6.96-5.92,10.93s2.2,8.04,6.37,11.3c.5,.39,1.25,.59,2,.59,.55,0,1.09-.11,1.55-.33,1.11-.52,1.3-1.48,.44-2.16-3.47-2.71-5.3-5.97-5.3-9.42s1.7-6.45,4.93-9.1c.83-.68,.59-1.65-.53-2.15"/><path class="cls-56" d="M1508.5,596.3c.46,.22,1.01,.33,1.55,.33,.75,0,1.5-.2,2-.59,4.17-3.26,6.37-7.16,6.37-11.3s-2.05-7.75-5.92-10.93c-.83-.68-2.43-.82-3.54-.33-1.13,.51-1.36,1.47-.53,2.15,3.23,2.65,4.93,5.79,4.93,9.1s-1.84,6.7-5.3,9.42c-.86,.67-.66,1.63,.44,2.16"/><path class="cls-56" d="M1518.68,596.3c.46,.22,1.01,.33,1.55,.33,.75,0,1.49-.2,2-.59,4.17-3.25,6.37-7.16,6.37-11.3s-2.05-7.75-5.91-10.93c-.82-.68-2.41-.82-3.54-.33-1.12,.51-1.36,1.47-.53,2.15,3.22,2.65,4.92,5.8,4.92,9.1s-1.84,6.71-5.3,9.42c-.86,.67-.66,1.63,.44,2.16"/><path class="cls-56" d="M1349.76,584.72c0-4.2,3.51-7.61,7.83-7.61s7.83,3.41,7.83,7.61-3.51,7.61-7.83,7.61-7.83-3.42-7.83-7.61m18.67,1.55l21.85,.15h.01c.87,0,1.58-.68,1.58-1.52,0-.85-.7-1.54-1.57-1.55l-21.87-.15c-.77-5.17-5.31-9.16-10.84-9.16-6.06,0-10.99,4.79-10.99,10.68s4.93,10.69,10.99,10.69c5.52,0,10.05-3.99,10.84-9.14"/><path class="cls-56" d="M1490.43,577.11c4.32,0,7.83,3.41,7.83,7.61s-3.51,7.61-7.83,7.61-7.83-3.41-7.83-7.61,3.51-7.61,7.83-7.61m-10.84,9.14c.77,5.16,5.31,9.16,10.84,9.16,6.06,0,11-4.8,11-10.69s-4.93-10.68-11-10.68c-5.52,0-10.06,3.98-10.84,9.14l-33.29-.15h0c-.87,0-1.58,.68-1.58,1.53,0,.85,.7,1.54,1.58,1.54l33.31,.15Z"/><path class="cls-56" d="M1432.16,525.31c4.32,0,7.84,3.42,7.84,7.62s-3.52,7.61-7.84,7.61-7.83-3.41-7.83-7.61,3.51-7.62,7.83-7.62m-1.74,18.13v17.79c0,.85,.71,1.54,1.58,1.54s1.58-.69,1.58-1.54v-17.76c5.39-.69,9.57-5.13,9.57-10.54,0-5.89-4.94-10.69-11-10.69s-11,4.8-11,10.69c0,5.31,4.02,9.7,9.26,10.51"/><path class="cls-56" d="M1331.07,522.43c4.32,0,7.83,3.41,7.83,7.61s-3.51,7.61-7.83,7.61-7.83-3.41-7.83-7.61,3.51-7.61,7.83-7.61m0,18.29c5.52,0,10.06-3.99,10.84-9.15h17.82l37.41,36.35c.31,.3,.71,.45,1.12,.45s.81-.15,1.12-.45c.62-.6,.62-1.57,0-2.18l-37.88-36.8c-.3-.29-.7-.45-1.12-.45h-18.47c-.77-5.16-5.31-9.15-10.84-9.15-6.06,0-11,4.79-11,10.68s4.93,10.68,11,10.68"/><path class="cls-56" d="M1429.28,491.77c1.52-1.48,3.54-2.23,5.54-2.23s4.01,.75,5.54,2.23c3.06,2.97,3.06,7.8,0,10.76-3.05,2.97-8.02,2.97-11.07,0-3.06-2.97-3.06-7.8,0-10.76m5.54,16.06c2.82,0,5.63-1.04,7.77-3.12,4.29-4.17,4.29-10.94,0-15.11-4.29-4.17-11.26-4.17-15.55,0-4.29,4.17-4.29,10.94,0,15.11,2.14,2.09,4.95,3.12,7.77,3.12"/><path class="cls-56" d="M1478.93,511.68c-3.05-2.97-3.05-7.8,0-10.76,1.53-1.48,3.54-2.23,5.54-2.23s4.02,.75,5.54,2.23c3.05,2.97,3.05,7.79,0,10.76-3.05,2.97-8.02,2.97-11.08,0m22.14,28.78c1.53-1.48,3.54-2.23,5.54-2.23s4.01,.75,5.54,2.23c3.05,2.97,3.05,7.8,0,10.76-3.05,2.97-8.02,2.97-11.08,0-3.05-2.97-3.05-7.8,0-10.76m-59.72,31.61c.31,.3,.71,.45,1.12,.45s.81-.15,1.12-.45l12.43-12.08h13.7c.42,0,.82-.16,1.12-.45l11.54-11.21h13.57c.46,1.86,1.39,3.62,2.88,5.06,2.14,2.09,4.96,3.12,7.77,3.12s5.63-1.04,7.78-3.12c4.29-4.17,4.29-10.94,0-15.11-4.29-4.17-11.26-4.17-15.55,0-1.99,1.93-3.02,4.43-3.16,6.97h-12.23l2.49-28.42c2.31-.3,4.54-1.26,6.31-2.99,4.28-4.16,4.28-10.94,0-15.11-4.3-4.17-11.28-4.17-15.56,0-4.29,4.17-4.29,10.95,0,15.11,1.71,1.66,3.85,2.63,6.07,2.97l-2.57,29.28-11.13,10.82h-13.7c-.42,0-.82,.16-1.12,.45l-12.9,12.53c-.62,.6-.62,1.57,0,2.18"/><path class="cls-56" d="M1385.17,495.59c4.32,0,7.83,3.41,7.83,7.61s-3.51,7.61-7.83,7.61-7.83-3.41-7.83-7.61,3.51-7.61,7.83-7.61m-1.58,18.14v16.92c0,.41,.17,.8,.46,1.08l27.12,26.35c.31,.3,.71,.45,1.12,.45s.81-.15,1.12-.45c.62-.6,.62-1.57,0-2.18l-26.66-25.9v-16.29c5.31-.75,9.41-5.16,9.41-10.53,0-5.89-4.93-10.69-10.99-10.69s-11,4.8-11,10.69c0,5.37,4.1,9.78,9.41,10.53"/><path class="cls-56" d="M1499.83,639.41c0-4.2,3.51-7.62,7.83-7.62s7.83,3.42,7.83,7.62-3.51,7.61-7.83,7.61-7.83-3.41-7.83-7.61m18.83,0c0-5.89-4.93-10.69-11-10.69-5.52,0-10.06,3.99-10.84,9.15h-17.82l-37.41-36.35c-.62-.6-1.62-.6-2.24,0-.62,.6-.62,1.57,0,2.18l37.87,36.8c.3,.29,.7,.45,1.12,.45h18.47c.77,5.16,5.31,9.15,10.84,9.15,6.06,0,11-4.79,11-10.68"/><path class="cls-56" d="M1406.57,644.14c-4.32,0-7.84-3.42-7.84-7.62s3.52-7.61,7.84-7.61,7.83,3.41,7.83,7.61-3.51,7.62-7.83,7.62m1.74-18.13v-17.8c0-.85-.71-1.54-1.58-1.54s-1.58,.69-1.58,1.54v17.77c-5.39,.69-9.57,5.13-9.57,10.54,0,5.89,4.94,10.69,11,10.69s11-4.8,11-10.69c0-5.31-4.02-9.7-9.26-10.51"/><path class="cls-56" d="M1398.37,678.87c-3.05-2.97-3.05-7.8,0-10.76,1.48-1.44,3.44-2.23,5.54-2.23s4.06,.79,5.54,2.23c3.05,2.97,3.05,7.79,0,10.76-2.96,2.87-8.13,2.87-11.08,0m13.31-12.94c-4.16-4.03-11.41-4.03-15.55,0-4.29,4.17-4.29,10.94,0,15.11,2.07,2.02,4.83,3.13,7.78,3.13s5.7-1.11,7.77-3.13c4.29-4.17,4.29-10.94,0-15.11"/><path class="cls-56" d="M1359.79,657.77c3.05,2.97,3.05,7.8,0,10.77-2.95,2.86-8.11,2.88-11.08,0-3.05-2.97-3.05-7.8,0-10.77,1.53-1.48,3.54-2.22,5.54-2.22s4.01,.74,5.54,2.22m-22.13-28.77c-3.05,2.97-8.02,2.97-11.08,0-3.05-2.97-3.05-7.8,0-10.76,1.53-1.48,3.54-2.23,5.55-2.23s4.01,.74,5.54,2.23c3.05,2.97,3.05,7.79,0,10.76m46.82-16.91l12.89-12.53c.62-.6,.62-1.57,0-2.18-.62-.6-1.62-.6-2.24,0l-12.43,12.08h-13.7c-.42,0-.82,.16-1.12,.45l-11.53,11.21h-13.57c-.46-1.85-1.39-3.62-2.88-5.06-4.29-4.17-11.27-4.16-15.56,0-4.28,4.17-4.28,10.94,0,15.11,2.14,2.09,4.96,3.12,7.78,3.12s5.64-1.04,7.78-3.12c1.99-1.93,3.02-4.43,3.16-6.97h12.27l-1.72,28.33c-2.59,.15-5.14,1.14-7.12,3.06-4.29,4.17-4.29,10.95,0,15.11,2.08,2.02,4.84,3.13,7.78,3.13s5.7-1.11,7.77-3.13c4.29-4.17,4.29-10.95,0-15.11-1.5-1.46-3.34-2.38-5.27-2.81l1.79-29.45,11.1-10.8h13.7c.42,0,.82-.16,1.12-.45"/><path class="cls-56" d="M1453.56,673.86c-4.32,0-7.83-3.41-7.83-7.61s3.51-7.61,7.83-7.61,7.83,3.41,7.83,7.61-3.51,7.61-7.83,7.61m11-7.61c0-5.36-4.1-9.78-9.41-10.53v-16.92c0-.41-.17-.8-.46-1.09l-27.12-26.35c-.62-.6-1.62-.6-2.24,0-.62,.6-.62,1.57,0,2.18l26.66,25.9v16.29c-5.31,.75-9.41,5.17-9.41,10.53,0,5.89,4.93,10.68,10.99,10.68s11-4.79,11-10.68"/><path class="cls-17" d="M228.52,1138.3v43.72l-43.7,30.92v-43.72l-43.7-30.91v43.72l43.7,30.92m-43.7-74.64l43.7-30.92,43.7,30.92-43.7,30.91m-80.17-54.85c0-2.87-2.32-5.19-5.19-5.19s-5.19,2.32-5.19,5.19,2.32,5.19,5.19,5.19,5.19-2.32,5.19-5.19Zm167.41,163.82c0-4.44-3.59-8.04-8.03-8.04s-8.03,3.6-8.03,8.04,3.59,8.04,8.03,8.04,8.03-3.6,8.03-8.04Zm24.1-180c0-3.72-3.02-6.75-6.74-6.75s-6.74,3.02-6.74,6.75,3.02,6.75,6.74,6.75,6.74-3.02,6.74-6.75Zm-180.79,169.45c0-4.09-3.31-7.41-7.4-7.41s-7.41,3.32-7.41,7.41,3.32,7.41,7.41,7.41,7.4-3.32,7.4-7.41Zm178.25-75.89c0-3.24-2.63-5.87-5.87-5.87s-5.87,2.63-5.87,5.87,2.63,5.87,5.87,5.87,5.87-2.63,5.87-5.87Zm-98.71-104.68c0-2.05-1.66-3.71-3.71-3.71s-3.71,1.66-3.71,3.71,1.66,3.71,3.71,3.71,3.71-1.66,3.71-3.71Zm-107.56,98.41c0-3.19-2.59-5.78-5.78-5.78s-5.78,2.59-5.78,5.78,2.59,5.78,5.78,5.78,5.78-2.59,5.78-5.78Zm96.81,72.12c0-2.89-2.34-5.23-5.23-5.23s-5.23,2.34-5.23,5.23,2.34,5.23,5.23,5.23,5.23-2.34,5.23-5.23Zm-43.15-193.43c0-3.26-2.64-5.9-5.89-5.9s-5.89,2.64-5.89,5.9,2.64,5.9,5.89,5.9,5.89-2.64,5.89-5.9Zm88.09,167.94c0-2.36-1.91-4.27-4.27-4.27s-4.27,1.91-4.27,4.27,1.91,4.27,4.27,4.27,4.27-1.91,4.27-4.27Zm21.65-167.5c0-3.41-2.77-6.18-6.18-6.18s-6.18,2.77-6.18,6.18,2.77,6.19,6.18,6.19,6.18-2.77,6.18-6.19Zm18.97,80.35c0-2.35-1.91-4.26-4.26-4.26s-4.26,1.91-4.26,4.26,1.91,4.26,4.26,4.26,4.26-1.91,4.26-4.26Zm-142.6,67.43c0-2.31-1.87-4.19-4.18-4.19s-4.19,1.87-4.19,4.19,1.87,4.19,4.19,4.19,4.18-1.87,4.18-4.19Zm98.77,61.68c0-3.63-2.95-6.58-6.58-6.58s-6.58,2.95-6.58,6.58,2.94,6.58,6.58,6.58,6.58-2.95,6.58-6.58Zm-137.13-44.01c0-3.83-3.1-6.93-6.92-6.93s-6.92,3.1-6.92,6.93,3.1,6.93,6.92,6.93,6.92-3.1,6.92-6.93Zm201.59,5.32c0-3.81-3.09-6.9-6.9-6.9s-6.89,3.09-6.89,6.9,3.09,6.9,6.89,6.9,6.9-3.09,6.9-6.9Zm-186.32-118.55l26.87,14.42m128.64,140.28l-43.81-65.27m67.87-104.62l-46.3,27.43m-125.04,132.55l40.29-56.34m129.58-15.25l-39.96-12.26m-51.3-87.01l-.46,5.22m-103.23,88.12l40.31-9.88m51.75,78.15l1.65-27.38m-43.07-155.59l21.03,40.63m63.9,118.35l-10.75-19.32m29.29-139.2l-26.98,43.15m46.98,32.74l-19.98,3.77m-115.16,60.17l14.31-12.07m76.96,70.16l-14.86-49.04m-114.98,7.44l47.16-32.01m143.24,37.03l-45.58-34.75"/><g class="cls-42"><path class="cls-59" d="M297.18,416.68c-22.8,0-41.28,18.48-41.28,41.28v15.48c0,22.8,18.48,41.28,41.28,41.28s41.28-18.48,41.28-41.28v-15.48c0-22.8-18.48-41.28-41.28-41.28"/></g><text class="cls-3" transform="translate(291.47 479.59)"><tspan x="0" y="0">1</tspan></text><g class="cls-33"><path class="cls-59" d="M325.2,983.42c-22.8,0-41.28,18.48-41.28,41.28v15.48c0,22.8,18.48,41.28,41.28,41.28s41.28-18.48,41.28-41.28v-15.48c0-22.8-18.48-41.28-41.28-41.28"/></g><text class="cls-3" transform="translate(315.76 1046.33)"><tspan x="0" y="0">2</tspan></text><g class="cls-22"><path class="cls-59" d="M904.99,1031.49c-22.8,0-41.28,18.48-41.28,41.28v15.48c0,22.8,18.48,41.28,41.28,41.28s41.28-18.48,41.28-41.28v-15.48c0-22.8-18.48-41.28-41.28-41.28"/></g><text class="cls-3" transform="translate(895.28 1094.4)"><tspan x="0" y="0">3</tspan></text><g class="cls-46"><path class="cls-59" d="M1293.06,413.74c-22.8,0-41.28,18.48-41.28,41.28v15.48c0,22.8,18.48,41.28,41.28,41.28s41.28-18.48,41.28-41.28v-15.48c0-22.8-18.48-41.28-41.28-41.28"/></g><text class="cls-3" transform="translate(1283.05 476.65)"><tspan x="0" y="0">4</tspan></text><g class="cls-34"><path class="cls-59" d="M832.96-24.51c-22.8,0-41.28,18.48-41.28,41.28v15.48c0,22.8,18.48,41.28,41.28,41.28s41.28-18.48,41.28-41.28v-15.48c0-22.8-18.48-41.28-41.28-41.28"/></g><text class="cls-3" transform="translate(823.39 38.39)"><tspan x="0" y="0">5</tspan></text><path class="cls-38" d="M124.66,492.89c-5.04,0-9.14,4.1-9.14,9.14v166.59c0,5.04,4.1,9.14,9.14,9.14h121.77c5.04,0,9.14-4.1,9.14-9.14v-166.59c0-5.04-4.1-9.14-9.14-9.14H124.66Zm121.77,191.29H124.66c-8.58,0-15.55-6.98-15.55-15.55v-166.59c0-8.58,6.98-15.55,15.55-15.55h121.77c8.58,0,15.55,6.98,15.55,15.55v166.59c0,8.57-6.97,15.55-15.55,15.55"/><path class="cls-38" d="M136.25,505.62h98.59v-12.73h-98.59v12.73Zm101.79,6.41h-105c-1.77,0-3.2-1.43-3.2-3.21v-19.15c0-1.77,1.43-3.21,3.2-3.21h105c1.77,0,3.21,1.44,3.21,3.21v19.15c0,1.77-1.44,3.21-3.21,3.21"/><path class="cls-38" d="M149.53,564.23c-.85,0-1.67-.34-2.27-.94l-8.06-8.06c-1.25-1.25-1.25-3.28,0-4.53,1.25-1.25,3.28-1.25,4.53,0l5.79,5.79,13.85-13.85c1.25-1.25,3.28-1.25,4.53,0s1.25,3.28,0,4.53l-16.12,16.12c-.6,.6-1.42,.94-2.27,.94"/><path class="cls-38" d="M149.53,604.52c-.85,0-1.67-.34-2.27-.94l-8.06-8.06c-1.25-1.25-1.25-3.28,0-4.53,1.25-1.25,3.28-1.25,4.53,0l5.79,5.79,13.85-13.85c1.25-1.25,3.28-1.25,4.53,0s1.25,3.28,0,4.53l-16.12,16.12c-.6,.6-1.42,.94-2.27,.94"/><path class="cls-38" d="M149.53,644.82c-.85,0-1.67-.34-2.27-.94l-8.06-8.06c-1.25-1.25-1.25-3.28,0-4.53,1.25-1.25,3.28-1.25,4.53,0l5.79,5.79,13.85-13.85c1.25-1.25,3.28-1.25,4.53,0s1.25,3.28,0,4.54l-16.12,16.12c-.6,.6-1.42,.94-2.27,.94"/><path class="cls-38" d="M229.61,564.23h-45.83c-1.77,0-3.2-1.43-3.2-3.21s1.43-3.2,3.2-3.2h45.83c1.77,0,3.21,1.43,3.21,3.2s-1.44,3.21-3.21,3.21"/><path class="cls-38" d="M229.61,604.52h-45.83c-1.77,0-3.2-1.43-3.2-3.21s1.43-3.2,3.2-3.2h45.83c1.77,0,3.21,1.43,3.21,3.2s-1.44,3.21-3.21,3.21"/><path class="cls-38" d="M229.61,644.82h-45.83c-1.77,0-3.2-1.43-3.2-3.21s1.43-3.2,3.2-3.2h45.83c1.77,0,3.21,1.43,3.21,3.2s-1.44,3.21-3.21,3.21"/><text class="cls-4" transform="translate(789.06 1212.46)"><tspan x="0" y="0">F</tspan></text><text class="cls-5" transform="translate(854.65 1249.61)"><tspan x="0" y="0">X</tspan></text><line class="cls-13" x1="355.9" y1="1176.91" x2="714.14" y2="1176.91"/><polygon class="cls-27" points="735.59 1176.91 702.37 1164.83 702.37 1189 735.59 1176.91"/><polyline class="cls-13" points="937.11 1176.91 1424.34 1176.91 1424.34 829.69"/><polygon class="cls-27" points="1424.34 808.23 1412.24 841.46 1436.43 841.46 1424.34 808.23"/><line class="cls-14" x1="1245.33" y1="619.4" x2="949.83" y2="761.26"/><text class="cls-3" transform="translate(739.22 1325.94)"><tspan x="0" y="0">E</tspan><tspan class="cls-47" x="18.52" y="0">v</tspan><tspan x="37.11" y="0">a</tspan><tspan class="cls-58" x="53.95" y="0">l</tspan><tspan class="cls-53" x="62.61" y="0">uierung</tspan></text><text class="cls-1" transform="translate(384.97 1158.65)"><tspan x="0" y="0">DESIGNVARIANTE</tspan></text><text class="cls-2" transform="translate(623.82 802.02)"><tspan class="cls-8" x="0" y="0">V</tspan><tspan class="cls-37" x="25.93" y="0">E</tspan><tspan class="cls-11" x="44.17" y="0">R</tspan><tspan class="cls-8" x="64.61" y="0">Ä</tspan><tspan class="cls-57" x="90.54" y="0">N</tspan><tspan class="cls-52" x="115.45" y="0">D</tspan><tspan class="cls-32" x="139.71" y="0">E</tspan><tspan class="cls-44" x="157.94" y="0">R</tspan><tspan class="cls-21" x="178.05" y="0">N </tspan><tspan class="cls-52" x="212.52" y="0">D</tspan><tspan class="cls-32" x="236.78" y="0">E</tspan><tspan class="cls-63" x="255.01" y="0">R</tspan><tspan class="cls-48" x="274.42" y="0"> </tspan><tspan class="cls-55" x="285.02" y="0">P</tspan><tspan class="cls-8" x="302.23" y="0">A</tspan><tspan class="cls-39" x="328.16" y="0">R</tspan><tspan class="cls-8" x="348.63" y="0">A</tspan><tspan class="cls-20" x="374.56" y="0">M</tspan><tspan class="cls-60" x="401.92" y="0">E</tspan><tspan class="cls-36" x="420.01" y="0">T</tspan><tspan class="cls-37" x="439.95" y="0">E</tspan><tspan x="458.19" y="0">R</tspan></text><text class="cls-2" transform="translate(1034.11 1158.4)"><tspan class="cls-62" x="0" y="0">D</tspan><tspan class="cls-28" x="24.29" y="0">ES</tspan><tspan class="cls-24" x="62.41" y="0">I</tspan><tspan class="cls-51" x="73.65" y="0">G</tspan><tspan class="cls-63" x="98.69" y="0">N</tspan><tspan class="cls-30" x="122.59" y="0"> </tspan><tspan class="cls-41" x="133.18" y="0">FITNESS*</tspan></text><text class="cls-6" transform="translate(462.94 122.56)"><tspan x="0" y="0">EVALUIERUNG DURCH DIE DESIGNER:INNEN</tspan></text><line class="cls-15" x1="801.11" y1="832.66" x2="404.31" y2="1023.15"/><polygon class="cls-27" points="384.97 1032.44 420.15 1028.96 409.68 1007.16 384.97 1032.44"/><text class="cls-12" transform="translate(74.77 1461.88)"><tspan x="0" y="0">*Die Fitness beschreibt, wie gut eine Designvariante performt </tspan><tspan x="0" y="33.6">anhand der definierten Designziele</tspan></text></g></svg>