<?xml version="1.0" encoding="UTF-8"?><svg id="Layer_2" xmlns="http://www.w3.org/2000/svg" xmlns:xlink="http://www.w3.org/1999/xlink" viewBox="0 0 1306.19 1595.3"><defs><style>.cls-1{letter-spacing:.15em;}.cls-2,.cls-3{letter-spacing:.17em;}.cls-4{fill:#a2c8f8;}.cls-5{letter-spacing:.16em;}.cls-6{letter-spacing:.17em;}.cls-7{letter-spacing:.18em;}.cls-8{letter-spacing:.17em;}.cls-9{letter-spacing:.17em;}.cls-10{letter-spacing:-.01em;}.cls-3,.cls-11,.cls-12,.cls-13{fill:#1d1d1b;}.cls-3,.cls-12{font-family:ProbaPro-SemiBold, 'Proba Pro';font-size:29.12px;}.cls-14{letter-spacing:0em;}.cls-15{letter-spacing:0em;}.cls-16{stroke-width:3px;}.cls-16,.cls-17,.cls-18{fill:none;}.cls-16,.cls-18{stroke:#373734;stroke-linecap:round;stroke-linejoin:round;}.cls-19{clip-path:url(#clippath-2);}.cls-20{letter-spacing:-.03em;}.cls-21{letter-spacing:.17em;}.cls-22{font-family:PlayfairDisplay-Regular, 'Playfair Display';font-size:155.28px;font-variation-settings:'wght' 400;}.cls-23{letter-spacing:0em;}.cls-24{fill:#373734;}.cls-25{letter-spacing:.15em;}.cls-26{letter-spacing:.17em;}.cls-27{clip-path:url(#clippath-1);}.cls-28{clip-path:url(#clippath-4);}.cls-29{letter-spacing:-.05em;}.cls-30{letter-spacing:.19em;}.cls-31{letter-spacing:.18em;}.cls-32{letter-spacing:.15em;}.cls-33{fill:#2b2b2b;}.cls-34{letter-spacing:-.03em;}.cls-35{letter-spacing:.13em;}.cls-11{font-size:45.81px;}.cls-11,.cls-13{font-family:ProbaPro-Regular, 'Proba Pro';}.cls-36{letter-spacing:0em;}.cls-37{letter-spacing:0em;}.cls-38{letter-spacing:.18em;}.cls-39{clip-path:url(#clippath);}.cls-40{letter-spacing:0em;}.cls-41{letter-spacing:0em;}.cls-13{font-size:38.82px;}.cls-42{letter-spacing:0em;}.cls-43{letter-spacing:-.03em;}.cls-44{clip-path:url(#clippath-3);}.cls-45{letter-spacing:0em;}.cls-46{letter-spacing:.15em;}.cls-47{letter-spacing:-.01em;}.cls-48{letter-spacing:.17em;}.cls-49{letter-spacing:.15em;}.cls-18{stroke-width:2px;}.cls-50{letter-spacing:-.02em;}.cls-51{letter-spacing:-.02em;}.cls-52{letter-spacing:-.02em;}.cls-53{letter-spacing:-.1em;}.cls-54{letter-spacing:.16em;}.cls-55{letter-spacing:-.02em;}.cls-56{letter-spacing:-.02em;}.cls-57{letter-spacing:0em;}</style><clipPath id="clippath"><path class="cls-17" d="M75.75,458.08c0,13.67,11.09,24.76,24.76,24.76s24.76-11.08,24.76-24.76-11.08-24.76-24.76-24.76-24.76,11.09-24.76,24.76"/></clipPath><clipPath id="clippath-1"><path class="cls-17" d="M75.75,886.31c0,13.67,11.09,24.76,24.76,24.76s24.76-11.09,24.76-24.76-11.08-24.76-24.76-24.76-24.76,11.08-24.76,24.76"/></clipPath><clipPath id="clippath-2"><path class="cls-17" d="M686.6,886.31c0,13.67,11.09,24.76,24.76,24.76s24.76-11.09,24.76-24.76-11.08-24.76-24.76-24.76-24.76,11.08-24.76,24.76"/></clipPath><clipPath id="clippath-3"><path class="cls-17" d="M1230.52,886.31c0,13.67,11.08,24.76,24.76,24.76s24.76-11.09,24.76-24.76-11.09-24.76-24.76-24.76-24.76,11.08-24.76,24.76"/></clipPath><clipPath id="clippath-4"><path class="cls-17" d="M681.97,24.76c0,13.67,11.09,24.76,24.76,24.76s24.76-11.08,24.76-24.76-11.08-24.76-24.76-24.76-24.76,11.08-24.76,24.76"/></clipPath></defs><g id="Layer_1-2"><path class="cls-24" d="M244.27,195.04h12.2c0-40.43-32.77-73.2-73.2-73.2s-73.2,32.77-73.2,73.2h12.2c0-33.63,27.37-61,61-61s61,27.37,61,61"/><path class="cls-24" d="M183.27,36.2c17.24,0,31.26,14.02,31.26,31.26s-14.02,31.26-31.26,31.26-31.26-14.02-31.26-31.26,14.02-31.26,31.26-31.26m0,73.96c23.58,0,42.7-19.12,42.7-42.7s-19.12-42.7-42.7-42.7-42.7,19.12-42.7,42.7,19.12,42.7,42.7,42.7"/><path class="cls-24" d="M1238.76,1444.58c8.51,0,15.43,6.92,15.43,15.43s-6.93,15.43-15.43,15.43-15.43-6.92-15.43-15.43,6.93-15.43,15.43-15.43m0,39.44c13.26,0,24.01-10.75,24.01-24.01s-10.75-24.01-24.01-24.01-24.01,10.75-24.01,24.01,10.75,24.01,24.01,24.01"/><path class="cls-24" d="M1220.95,1492.83c1.94,1.96,3.73,4.07,5.37,6.3,3.8-1.71,8.01-2.68,12.44-2.68,16.77,0,30.41,13.64,30.41,30.41,0,1.82-.17,3.6-.48,5.33h8.1c.24-1.74,.38-3.52,.38-5.33,0-21.21-17.2-38.41-38.41-38.41-6.43,0-12.48,1.59-17.81,4.38"/><path class="cls-24" d="M1221.15,1532.19h8c0-26.52-21.5-48.01-48.01-48.01s-48.01,21.5-48.01,48.01h8c0-22.06,17.95-40.01,40.01-40.01s40.01,17.95,40.01,40.01"/><path class="cls-24" d="M1181.14,1427.51c11.31,0,20.51,9.2,20.51,20.5s-9.2,20.51-20.51,20.51-20.51-9.2-20.51-20.51,9.2-20.5,20.51-20.5m0,48.51c15.47,0,28.01-12.54,28.01-28.01s-12.54-28.01-28.01-28.01-28.01,12.54-28.01,28.01,12.54,28.01,28.01,28.01"/><path class="cls-24" d="M1093.6,1532.19c-.31-1.73-.48-3.51-.48-5.33,0-16.77,13.64-30.41,30.41-30.41,4.43,0,8.64,.96,12.44,2.67,1.64-2.23,3.43-4.33,5.37-6.29-5.32-2.8-11.38-4.38-17.81-4.38-21.22,0-38.41,17.19-38.41,38.41,0,1.81,.13,3.59,.38,5.33h8.1Z"/><path class="cls-24" d="M1123.53,1444.58c8.51,0,15.43,6.92,15.43,15.43s-6.93,15.43-15.43,15.43-15.43-6.92-15.43-15.43,6.93-15.43,15.43-15.43m0,39.44c13.26,0,24.01-10.75,24.01-24.01s-10.75-24.01-24.01-24.01-24.01,10.75-24.01,24.01,10.75,24.01,24.01,24.01"/><line class="cls-18" x1="1060.6" y1="152.74" x2="387.77" y2="152.74"/><polygon class="cls-24" points="373.68 152.74 408.36 140.12 408.36 165.36 373.68 152.74"/><line class="cls-18" x1="1181.12" y1="557.21" x2="1181.12" y2="320.58"/><polygon class="cls-24" points="1181.12 298.18 1193.74 332.86 1168.5 332.86 1181.12 298.18"/><line class="cls-18" x1="1181.12" y1="883.08" x2="1181.12" y2="660.26"/><line class="cls-18" x1="1179.16" y1="1264.46" x2="1179.16" y2="1219.13"/><line class="cls-18" x1="1179.16" y1="1397.27" x2="1179.16" y2="1330.87"/><polygon class="cls-24" points="1179.15 1185.6 1191.77 1220.28 1166.53 1220.28 1179.15 1185.6"/><line class="cls-18" x1="349.73" y1="1009.78" x2="1022.56" y2="1009.78"/><polygon class="cls-24" points="1057.25 1009.42 1022.56 996.8 1022.56 1022.05 1057.25 1009.42"/><line class="cls-18" x1="182.52" y1="276.96" x2="183.34" y2="410.92"/><polygon class="cls-24" points="183.48 433.32 195.89 398.56 170.65 398.71 183.48 433.32"/><line class="cls-18" x1="182.52" y1="729.95" x2="183.34" y2="863.91"/><polygon class="cls-24" points="183.48 886.31 195.89 851.55 170.65 851.7 183.48 886.31"/><text class="cls-11" transform="translate(1080.1 1583.53)"><tspan class="cls-41" x="0" y="0">U</tspan><tspan x="30.42" y="0">ser:innen</tspan></text><text class="cls-11" transform="translate(1079.8 253.11)"><tspan class="cls-47" x="0" y="0">D</tspan><tspan class="cls-51" x="31.06" y="0">a</tspan><tspan class="cls-47" x="50.94" y="0">t</tspan><tspan class="cls-23" x="64.92" y="0">enbank</tspan></text><text class="cls-11" transform="translate(71.02 242.84)"><tspan x="0" y="0">D</tspan><tspan class="cls-45" x="31.7" y="0">e</tspan><tspan x="54.52" y="0">signer:in</tspan></text><path class="cls-33" d="M1181.12,940.59c-38.15,0-69.2,31.04-69.2,69.2s31.04,69.19,69.2,69.19,69.2-31.04,69.2-69.19-31.04-69.2-69.2-69.2m0,143.36c-40.89,0-74.16-33.27-74.16-74.16s33.27-74.16,74.16-74.16,74.16,33.27,74.16,74.16-33.27,74.16-74.16,74.16"/><path class="cls-33" d="M1181.12,980.18c-18.97,0-37.02-7.16-50.82-20.15-1-.94-1.04-2.51-.1-3.51,.94-1,2.51-1.04,3.51-.11,12.88,12.12,29.72,18.8,47.42,18.8s34.82-6.78,47.74-19.11c.99-.94,2.57-.91,3.51,.08,.94,.99,.91,2.57-.08,3.51-13.85,13.21-32.02,20.48-51.17,20.48"/><path class="cls-33" d="M1132.26,1063.59c-.66,0-1.33-.27-1.82-.79-.93-1-.88-2.58,.13-3.51,13.77-12.83,31.72-19.9,50.55-19.9s36.44,6.94,50.15,19.53c1.01,.93,1.08,2.5,.15,3.51-.93,1.01-2.5,1.08-3.51,.15-12.79-11.75-29.41-18.22-46.79-18.22s-34.32,6.59-47.17,18.56c-.48,.45-1.09,.67-1.69,.67"/><path class="cls-33" d="M1181.12,940.59c-19.36,0-35.11,31.04-35.11,69.2s15.75,69.19,35.11,69.19,35.11-31.04,35.11-69.19-15.75-69.2-35.11-69.2m0,143.36c-22.47,0-40.08-32.58-40.08-74.16s17.6-74.16,40.08-74.16,40.08,32.58,40.08,74.16-17.6,74.16-40.08,74.16"/><path class="cls-33" d="M1252.8,1012.27h-143.36c-1.37,0-2.48-1.11-2.48-2.48s1.11-2.48,2.48-2.48h143.36c1.37,0,2.48,1.11,2.48,2.48s-1.11,2.48-2.48,2.48"/><path class="cls-33" d="M1181.12,1083.95c-1.37,0-2.48-1.11-2.48-2.48v-143.36c0-1.37,1.11-2.48,2.48-2.48s2.48,1.11,2.48,2.48v143.36c0,1.37-1.11,2.48-2.48,2.48"/><text class="cls-11" transform="translate(1089.63 1168.83)"><tspan class="cls-53" x="0" y="0">W</tspan><tspan x="47.37" y="0">e</tspan><tspan class="cls-41" x="70.64" y="0">b</tspan><tspan x="94.93" y="0">sei</tspan><tspan class="cls-50" x="145.87" y="0">t</tspan><tspan x="159.8" y="0">e</tspan></text><text class="cls-11" transform="translate(33.2 1168.83)"><tspan class="cls-43" x="0" y="0">P</tspan><tspan class="cls-37" x="22.63" y="0">a</tspan><tspan class="cls-20" x="43.39" y="0">r</tspan><tspan class="cls-42" x="57.63" y="0">am</tspan><tspan class="cls-56" x="113.25" y="0">e</tspan><tspan x="135.61" y="0">trisch</tspan><tspan class="cls-45" x="239.56" y="0">e</tspan><tspan x="262.37" y="0">s </tspan></text><text class="cls-11" transform="translate(62.15 1223.81)"><tspan x="0" y="0">Basismodell</tspan></text><path class="cls-16" d="M224.3,976.35v41.74l-41.72,29.52v-41.74l-41.72-29.52v41.74l41.72,29.52m-41.72-71.26l41.72-29.52,41.72,29.52-41.72,29.52m-76.54-52.37c0-2.74-2.22-4.96-4.95-4.96s-4.95,2.22-4.95,4.96,2.22,4.96,4.95,4.96,4.95-2.22,4.95-4.96Zm159.84,156.41c0-4.24-3.44-7.67-7.67-7.67s-7.67,3.44-7.67,7.67,3.43,7.68,7.67,7.68,7.67-3.44,7.67-7.68Zm23.01-171.86c0-3.56-2.88-6.44-6.44-6.44s-6.44,2.89-6.44,6.44,2.88,6.44,6.44,6.44,6.44-2.88,6.44-6.44Zm-172.6,161.79c0-3.9-3.17-7.07-7.07-7.07s-7.07,3.17-7.07,7.07,3.17,7.07,7.07,7.07,7.07-3.17,7.07-7.07Zm170.18-72.46c0-3.1-2.51-5.61-5.6-5.61s-5.6,2.51-5.6,5.61,2.51,5.6,5.6,5.6,5.6-2.51,5.6-5.6Zm-94.24-99.95c0-1.96-1.59-3.54-3.54-3.54s-3.54,1.59-3.54,3.54,1.59,3.54,3.54,3.54,3.54-1.59,3.54-3.54Zm-102.69,93.96c0-3.05-2.47-5.52-5.52-5.52s-5.52,2.47-5.52,5.52,2.47,5.52,5.52,5.52,5.52-2.47,5.52-5.52Zm92.43,68.86c0-2.76-2.24-4.99-4.99-4.99s-4.99,2.24-4.99,4.99,2.24,5,4.99,5,4.99-2.24,4.99-5Zm-41.2-184.68c0-3.11-2.52-5.63-5.63-5.63s-5.63,2.52-5.63,5.63,2.52,5.63,5.63,5.63,5.63-2.52,5.63-5.63Zm84.1,160.35c0-2.25-1.82-4.08-4.08-4.08s-4.08,1.83-4.08,4.08,1.83,4.08,4.08,4.08,4.08-1.83,4.08-4.08Zm20.67-159.92c0-3.26-2.64-5.9-5.9-5.9s-5.9,2.64-5.9,5.9,2.64,5.91,5.9,5.91,5.9-2.64,5.9-5.91Zm18.12,76.71c0-2.25-1.82-4.07-4.06-4.07s-4.07,1.82-4.07,4.07,1.82,4.07,4.07,4.07,4.06-1.82,4.06-4.07Zm-136.14,64.39c0-2.21-1.79-4-4-4s-4,1.79-4,4,1.79,4,4,4,4-1.79,4-4Zm94.3,58.89c0-3.47-2.81-6.28-6.28-6.28s-6.28,2.81-6.28,6.28,2.81,6.28,6.28,6.28,6.28-2.81,6.28-6.28Zm-130.92-42.02c0-3.65-2.96-6.61-6.61-6.61s-6.61,2.96-6.61,6.61,2.96,6.61,6.61,6.61,6.61-2.96,6.61-6.61Zm192.46,5.08c0-3.64-2.95-6.59-6.58-6.59s-6.58,2.95-6.58,6.59,2.95,6.59,6.58,6.59,6.58-2.95,6.58-6.59Zm-177.89-113.18l25.66,13.77m122.82,133.93l-41.82-62.32m64.8-99.89l-44.21,26.19m-119.38,126.56l38.46-53.79m123.71-14.56l-38.15-11.7m-48.98-83.08l-.44,4.98m-98.56,84.14l38.49-9.43m49.41,74.61l1.58-26.14m-41.13-148.56l20.08,38.79m61.01,113l-10.26-18.45m27.96-132.9l-25.76,41.2m44.85,31.25l-19.08,3.6m-109.95,57.45l13.66-11.53m73.48,66.98l-14.18-46.82m-109.77,7.1l45.02-30.56m136.75,35.36l-43.51-33.18"/><path class="cls-24" d="M1181.12,94.2c-25.17,0-41.23,6.15-41.23,10.37s16.06,10.37,41.23,10.37,41.23-6.14,41.23-10.37-16.06-10.37-41.23-10.37m0,25.38c-22.79,0-45.86-5.15-45.86-15s23.07-15,45.86-15,45.86,5.16,45.86,15-23.07,15-45.86,15"/><path class="cls-24" d="M1181.12,150.88c-22.79,0-45.86-5.15-45.86-15v-31.31c0-1.28,1.04-2.31,2.31-2.31s2.32,1.04,2.32,2.31v31.31c0,4.22,16.06,10.37,41.23,10.37s41.23-6.15,41.23-10.37v-31.31c0-1.28,1.04-2.31,2.32-2.31s2.31,1.04,2.31,2.31v31.31c0,9.85-23.07,15-45.86,15"/><path class="cls-24" d="M1181.12,178.1c-22.79,0-45.86-5.15-45.86-15v-12.13c0-1.28,1.04-2.31,2.31-2.31s2.32,1.04,2.32,2.31v12.13c0,4.23,16.06,10.37,41.23,10.37s41.23-6.14,41.23-10.37v-12.13c0-1.28,1.04-2.31,2.32-2.31s2.31,1.04,2.31,2.31v12.13c0,9.85-23.07,15-45.86,15"/><path class="cls-24" d="M1181.12,205.32c-22.79,0-45.86-5.15-45.86-15v-12.13c0-1.28,1.04-2.31,2.31-2.31s2.32,1.04,2.32,2.31v12.13c0,4.22,16.06,10.37,41.23,10.37s41.23-6.15,41.23-10.37v-12.13c0-1.28,1.04-2.31,2.32-2.31s2.31,1.04,2.31,2.31v12.13c0,9.85-23.07,15-45.86,15"/><text class="cls-12" transform="translate(472.98 102.26)"><tspan class="cls-48"><tspan x="0" y="0">EINGABEN WERDEN DURCH DIE</tspan></tspan><tspan class="cls-2" x="-7.77" y="34.94">D</tspan><tspan class="cls-26" x="17.58" y="34.94">ESIGNER</tspan><tspan class="cls-9" x="159.93" y="34.94">:INNEN</tspan><tspan class="cls-32" x="279.33" y="34.94"> </tspan><tspan class="cls-35" x="290.36" y="34.94">A</tspan><tspan class="cls-5" x="316.42" y="34.94">U</tspan><tspan class="cls-25" x="340.29" y="34.94">S</tspan><tspan class="cls-31" x="360.7" y="34.94">G</tspan><tspan class="cls-7" x="386.85" y="34.94">E</tspan><tspan class="cls-21" x="406.01" y="34.94">W</tspan><tspan class="cls-6" x="443.13" y="34.94">E</tspan><tspan class="cls-46" x="462.17" y="34.94">R</tspan><tspan class="cls-54" x="482.49" y="34.94">T</tspan><tspan class="cls-8" x="503.31" y="34.94">E</tspan><tspan class="cls-14" x="522.2" y="34.94">T</tspan></text><text class="cls-3" transform="translate(522.59 962.73)"><tspan x="0" y="0">KONVERTIERUNG DES </tspan><tspan x="-.33" y="34.94">MODELLS IN DAS WEB</tspan></text><text class="cls-12" transform="translate(1060.73 597.53)"><tspan class="cls-2"><tspan x="0" y="0">SAMMELN DES</tspan></tspan><tspan class="cls-48"><tspan x="22.78" y="34.94">FEEDBACKS</tspan></tspan></text><text class="cls-12" transform="translate(1119.5 1307.47)"><tspan class="cls-38" x="0" y="0">I</tspan><tspan class="cls-30" x="12.02" y="0">N</tspan><tspan class="cls-49" x="38.02" y="0">P</tspan><tspan class="cls-54" x="57.91" y="0">U</tspan><tspan class="cls-1" x="81.67" y="0">T</tspan><tspan x="102.28" y="0">S</tspan></text><g class="cls-39"><path class="cls-4" d="M100.51,406.9c-23.8,0-43.1,19.3-43.1,43.1v16.16c0,23.8,19.3,43.1,43.1,43.1s43.1-19.3,43.1-43.1v-16.16c0-23.8-19.3-43.1-43.1-43.1"/></g><text class="cls-13" transform="translate(94.55 472.58)"><tspan x="0" y="0">1</tspan></text><g class="cls-27"><path class="cls-4" d="M100.51,835.13c-23.8,0-43.1,19.3-43.1,43.1v16.16c0,23.8,19.3,43.1,43.1,43.1s43.1-19.3,43.1-43.1v-16.16c0-23.8-19.3-43.1-43.1-43.1"/></g><text class="cls-13" transform="translate(90.65 900.81)"><tspan x="0" y="0">2</tspan></text><g class="cls-19"><path class="cls-4" d="M711.36,835.13c-23.8,0-43.1,19.3-43.1,43.1v16.16c0,23.8,19.3,43.1,43.1,43.1s43.1-19.3,43.1-43.1v-16.16c0-23.8-19.3-43.1-43.1-43.1"/></g><text class="cls-13" transform="translate(701.21 900.81)"><tspan x="0" y="0">3</tspan></text><g class="cls-44"><path class="cls-4" d="M1255.28,835.13c-23.8,0-43.1,19.3-43.1,43.1v16.16c0,23.8,19.3,43.1,43.1,43.1s43.1-19.3,43.1-43.1v-16.16c0-23.8-19.3-43.1-43.1-43.1"/></g><text class="cls-13" transform="translate(1244.82 900.81)"><tspan x="0" y="0">4</tspan></text><g class="cls-28"><path class="cls-4" d="M706.73-26.42c-23.8,0-43.1,19.3-43.1,43.1v16.16c0,23.8,19.3,43.1,43.1,43.1s43.1-19.3,43.1-43.1V16.68c0-23.8-19.3-43.1-43.1-43.1"/></g><text class="cls-13" transform="translate(696.74 39.26)"><tspan x="0" y="0">5</tspan></text><text class="cls-22" transform="translate(136.91 574.1)"><tspan x="0" y="0">?</tspan></text><text class="cls-13" transform="translate(0 648.01)"><tspan class="cls-57" x="0" y="0">R</tspan><tspan x="20.34" y="0">ahmen d</tspan><tspan class="cls-10" x="157.65" y="0">e</tspan><tspan class="cls-36" x="176.98" y="0">s </tspan><tspan class="cls-29" x="200.81" y="0">F</tspan><tspan x="217.23" y="0">eedb</tspan><tspan class="cls-55" x="298.6" y="0">a</tspan><tspan class="cls-15" x="315.45" y="0">c</tspan><tspan class="cls-40" x="334" y="0">k</tspan><tspan x="351.74" y="0">s </tspan></text><text class="cls-13" transform="translate(103.34 694.59)"><tspan x="0" y="0">d</tspan><tspan class="cls-52" x="21" y="0">e</tspan><tspan x="39.98" y="0">ﬁnie</tspan><tspan class="cls-34" x="107.72" y="0">r</tspan><tspan x="119.95" y="0">en</tspan></text></g></svg>