<?xml version="1.0" encoding="UTF-8"?><svg id="Layer_2" xmlns="http://www.w3.org/2000/svg" viewBox="0 0 1462.16 438.67"><defs><style>.cls-1{letter-spacing:.04em;}.cls-2{letter-spacing:.05em;}.cls-3{letter-spacing:.06em;}.cls-4{font-family:ProbaPro-SemiBold, 'Proba Pro';font-size:21px;}.cls-4,.cls-5,.cls-6,.cls-7,.cls-8{fill:#1d1d1b;}.cls-9{letter-spacing:.05em;}.cls-10{letter-spacing:.06em;}.cls-11{letter-spacing:.04em;}.cls-12{letter-spacing:-.04em;}.cls-13{letter-spacing:.02em;}.cls-14{letter-spacing:.06em;}.cls-15{letter-spacing:.04em;}.cls-16{letter-spacing:.05em;}.cls-17{letter-spacing:-.03em;}.cls-18{letter-spacing:0em;}.cls-19{letter-spacing:.04em;}.cls-20{letter-spacing:.05em;}.cls-21{letter-spacing:.05em;}.cls-22{fill:#ffa3ac;}.cls-23{fill:#ce4858;}.cls-24{fill:#edede6;}.cls-5{font-size:25.59px;}.cls-5,.cls-6,.cls-8{font-family:ProbaPro-Regular, 'Proba Pro';}.cls-6{font-size:28.43px;}.cls-25{letter-spacing:0em;}.cls-26{letter-spacing:-.02em;}.cls-8{font-size:34.12px;}</style></defs><g id="Layer_1-2"><text class="cls-5" transform="translate(8.81 143.88)"><tspan x="0" y="0">Ide</tspan><tspan class="cls-12" x="32.52" y="0">e</tspan><tspan x="44.5" y="0">/</tspan></text><text class="cls-5" transform="translate(8.81 174.59)"><tspan x="0" y="0">Bri</tspan><tspan class="cls-26" x="28.4" y="0">e</tspan><tspan x="40.89" y="0">ﬁng</tspan></text><text class="cls-5" transform="translate(1345.92 157.9)"><tspan x="0" y="0">P</tspan><tspan class="cls-17" x="13.28" y="0">r</tspan><tspan x="21.37" y="0">oduktion</tspan></text><polygon class="cls-24" points="745.23 149.48 458.53 20.96 171.83 149.48 458.53 277.99 745.23 149.48"/><polygon class="cls-24" points="1311.96 149.48 1028.28 20.96 744.61 149.48 1028.28 277.99 1311.96 149.48"/><text class="cls-6" transform="translate(226.23 25.25)"><tspan class="cls-2" x="0" y="0">D</tspan><tspan class="cls-11" x="21.21" y="0">E</tspan><tspan class="cls-15" x="36.48" y="0">F</tspan><tspan class="cls-3" x="51.03" y="0">IN</tspan><tspan class="cls-18" x="81.08" y="0">E</tspan></text><text class="cls-6" transform="translate(563.53 24.17)"><tspan class="cls-14" x="0" y="0">D</tspan><tspan class="cls-9" x="21.29" y="0">I</tspan><tspan class="cls-1" x="29.08" y="0">S</tspan><tspan class="cls-13" x="45.23" y="0">C</tspan><tspan class="cls-25" x="65.7" y="0">O</tspan><tspan class="cls-20" x="88.79" y="0">V</tspan><tspan class="cls-11" x="111.42" y="0">E</tspan><tspan x="126.68" y="0">R</tspan></text><text class="cls-6" transform="translate(810.59 25.25)"><tspan class="cls-16" x="0" y="0">D</tspan><tspan class="cls-10" x="21.21" y="0">E</tspan><tspan class="cls-20" x="36.99" y="0">V</tspan><tspan class="cls-11" x="59.62" y="0">E</tspan><tspan x="74.88" y="0">L</tspan><tspan class="cls-16" x="88.1" y="0">O</tspan><tspan x="112.53" y="0">P</tspan></text><text class="cls-6" transform="translate(1179.08 25.25)"><tspan class="cls-16" x="0" y="0">D</tspan><tspan class="cls-11" x="21.21" y="0">E</tspan><tspan class="cls-19" x="36.48" y="0">L</tspan><tspan class="cls-21" x="50.86" y="0">I</tspan><tspan class="cls-20" x="58.48" y="0">V</tspan><tspan class="cls-11" x="81.11" y="0">E</tspan><tspan x="96.38" y="0">R</tspan></text><polygon class="cls-23" points="1028.29 277.99 1046.21 269.87 1046.21 29.09 1028.29 20.96 950.94 56 950.94 242.95 1028.29 277.99"/><polygon class="cls-23" points="458.53 277.99 479.31 268.68 479.31 30.27 458.53 20.96 426.11 35.49 426.11 263.46 458.53 277.99"/><circle class="cls-22" cx="452.71" cy="149.48" r="22.17"/><path class="cls-7" d="M449.61,140.54v-2.01l6.21-1.06v24.02h-2.46v-21.67l-3.75,.72Z"/><circle class="cls-22" cx="22.17" cy="345.03" r="22.17"/><path class="cls-7" d="M19.06,336.09v-2.01l6.21-1.06v24.02h-2.46v-21.67l-3.75,.72Z"/><circle class="cls-22" cx="998.58" cy="149.48" r="22.17"/><text class="cls-8" transform="translate(989.76 159.59)"><tspan x="0" y="0">2</tspan></text><circle class="cls-22" cx="22.17" cy="415.48" r="22.17"/><text class="cls-8" transform="translate(13.35 425.59)"><tspan x="0" y="0">2</tspan></text><text class="cls-4" transform="translate(69.06 338.61)"><tspan x="0" y="0">Generative Iteration: Fokus auf </tspan><tspan x="0" y="25.2">möglichst diverse Designs</tspan></text><text class="cls-4" transform="translate(69.06 408.03)"><tspan x="0" y="0">Generative Iteration: Fokus auf </tspan><tspan x="0" y="25.2">Design-Perfomance</tspan></text></g></svg>