<?xml version="1.0" encoding="UTF-8"?><svg id="Layer_2" xmlns="http://www.w3.org/2000/svg" viewBox="0 0 1455.7 390.29"><defs><style>.cls-1{letter-spacing:.04em;}.cls-2{letter-spacing:.05em;}.cls-3{letter-spacing:.06em;}.cls-4{fill:#a2c8f8;}.cls-5{font-family:ProbaPro-SemiBold, 'Proba Pro';font-size:21px;}.cls-5,.cls-6,.cls-7,.cls-8,.cls-9{fill:#1d1d1b;}.cls-10{letter-spacing:.05em;}.cls-11{letter-spacing:.06em;}.cls-12{letter-spacing:.04em;}.cls-13{fill:#4692f0;}.cls-14{letter-spacing:-.04em;}.cls-15{letter-spacing:.02em;}.cls-16{fill:#edede6;opacity:.95;}.cls-17{letter-spacing:.06em;}.cls-18{letter-spacing:.04em;}.cls-19{letter-spacing:.05em;}.cls-20{letter-spacing:-.03em;}.cls-21{letter-spacing:0em;}.cls-22{letter-spacing:.04em;}.cls-23{letter-spacing:.05em;}.cls-24{letter-spacing:.05em;}.cls-6{font-size:25.59px;}.cls-6,.cls-7,.cls-9{font-family:ProbaPro-Regular, 'Proba Pro';}.cls-7{font-size:28.43px;}.cls-25{letter-spacing:0em;}.cls-26{letter-spacing:-.02em;}.cls-9{font-size:34.12px;}</style></defs><g id="Layer_1-2"><text class="cls-6" transform="translate(2.35 143.88)"><tspan x="0" y="0">Ide</tspan><tspan class="cls-14" x="32.52" y="0">e</tspan><tspan x="44.5" y="0">/</tspan></text><text class="cls-6" transform="translate(2.35 174.59)"><tspan x="0" y="0">Bri</tspan><tspan class="cls-26" x="28.4" y="0">e</tspan><tspan x="40.89" y="0">ﬁng</tspan></text><text class="cls-6" transform="translate(1339.45 157.9)"><tspan x="0" y="0">P</tspan><tspan class="cls-20" x="13.28" y="0">r</tspan><tspan x="21.37" y="0">oduktion</tspan></text><polygon class="cls-16" points="738.77 149.47 452.07 20.96 165.37 149.47 452.07 277.99 738.77 149.47"/><polygon class="cls-16" points="1305.5 149.48 1021.82 20.96 738.15 149.48 1021.82 277.99 1305.5 149.48"/><text class="cls-7" transform="translate(219.77 25.25)"><tspan class="cls-2" x="0" y="0">D</tspan><tspan class="cls-12" x="21.21" y="0">E</tspan><tspan class="cls-18" x="36.48" y="0">F</tspan><tspan class="cls-3" x="51.03" y="0">IN</tspan><tspan class="cls-21" x="81.08" y="0">E</tspan></text><text class="cls-7" transform="translate(557.07 24.17)"><tspan class="cls-17" x="0" y="0">D</tspan><tspan class="cls-10" x="21.29" y="0">I</tspan><tspan class="cls-1" x="29.08" y="0">S</tspan><tspan class="cls-15" x="45.23" y="0">C</tspan><tspan class="cls-25" x="65.7" y="0">O</tspan><tspan class="cls-23" x="88.79" y="0">V</tspan><tspan class="cls-12" x="111.42" y="0">E</tspan><tspan x="126.68" y="0">R</tspan></text><text class="cls-7" transform="translate(804.13 25.25)"><tspan class="cls-19" x="0" y="0">D</tspan><tspan class="cls-11" x="21.21" y="0">E</tspan><tspan class="cls-23" x="36.99" y="0">V</tspan><tspan class="cls-12" x="59.62" y="0">E</tspan><tspan x="74.88" y="0">L</tspan><tspan class="cls-19" x="88.1" y="0">O</tspan><tspan x="112.53" y="0">P</tspan></text><text class="cls-7" transform="translate(1172.62 25.25)"><tspan class="cls-19" x="0" y="0">D</tspan><tspan class="cls-12" x="21.21" y="0">E</tspan><tspan class="cls-22" x="36.48" y="0">L</tspan><tspan class="cls-24" x="50.86" y="0">I</tspan><tspan class="cls-23" x="58.48" y="0">V</tspan><tspan class="cls-12" x="81.11" y="0">E</tspan><tspan x="96.38" y="0">R</tspan></text><polygon class="cls-13" points="821.94 187.44 879.05 213.31 879.05 85.64 821.94 111.51 821.94 187.44"/><polygon class="cls-13" points="379.05 53.69 379.05 245.26 452.07 277.99 452.07 20.96 379.05 53.69"/><circle class="cls-4" cx="415.56" cy="149.48" r="22.17"/><path class="cls-8" d="M412.46,140.54v-2.01l6.21-1.06v24.02h-2.46v-21.67l-3.75,.72Z"/><circle class="cls-4" cx="22.17" cy="296.64" r="22.17"/><path class="cls-8" d="M19.06,287.7v-2.01l6.21-1.06v24.02h-2.46v-21.67l-3.75,.72Z"/><circle class="cls-4" cx="849.53" cy="149.48" r="22.17"/><text class="cls-9" transform="translate(840.71 159.59)"><tspan x="0" y="0">2</tspan></text><circle class="cls-4" cx="22.17" cy="367.09" r="22.17"/><text class="cls-9" transform="translate(13.35 377.21)"><tspan x="0" y="0">2</tspan></text><text class="cls-5" transform="translate(72.34 293.74)"><tspan x="0" y="0">Feedback im Rahmen eines </tspan><tspan x="0" y="25.2">Redesigns</tspan></text><text class="cls-5" transform="translate(72.34 359.65)"><tspan x="0" y="0">Feedback im Rahmen des neuen </tspan><tspan x="0" y="25.2">Designs</tspan></text></g></svg>